<svg width="1024" height="753" viewBox="0 0 1024 753" fill="none" xmlns="http://www.w3.org/2000/svg">
<g clip-path="url(#clip0_122_130)">
<rect width="1024" height="753" fill="#121214"/>
<g opacity="0.2" filter="url(#filter0_f_122_130)">
<ellipse cx="567.5" cy="25" rx="670.5" ry="350" fill="#35875D"/>
</g>
<path d="M88.0349 261C89.5302 261 90.6622 261.63 91.4308 262.891C92.2134 264.138 92.6047 265.953 92.6047 268.336C92.6047 270.719 92.2134 272.541 91.4308 273.802C90.6622 275.063 89.5302 275.693 88.0349 275.693C86.5536 275.693 85.4216 275.063 84.639 273.802C83.8564 272.541 83.4651 270.719 83.4651 268.336C83.4651 265.967 83.8564 264.152 84.639 262.891C85.4216 261.63 86.5536 261 88.0349 261ZM84.9534 268.336C84.9534 270.026 85.1072 271.35 85.4146 272.306L90.0683 263.099C89.5791 262.448 88.9013 262.122 88.0349 262.122C87.0706 262.122 86.316 262.635 85.771 263.66C85.2259 264.672 84.9534 266.23 84.9534 268.336ZM88.0349 274.55C89.0131 274.55 89.7748 274.044 90.3198 273.033C90.8648 272.008 91.1373 270.442 91.1373 268.336C91.1373 266.549 90.9627 265.163 90.6133 264.18L85.9596 273.469C86.4627 274.19 87.1545 274.55 88.0349 274.55Z" fill="url(#paint0_linear_122_130)" fill-opacity="0.6"/>
<path d="M89.2926 298.135H92.3741V299.236H84.3874V298.135H87.9511V286.455L84.5551 288.471L83.9682 287.536L88.1607 284.959H89.2926V298.135Z" fill="url(#paint1_linear_122_130)" fill-opacity="0.6"/>
<path d="M88.0349 308.502C89.5302 308.502 90.6622 309.133 91.4308 310.393C92.2134 311.64 92.6047 313.455 92.6047 315.838C92.6047 318.221 92.2134 320.043 91.4308 321.304C90.6622 322.565 89.5302 323.195 88.0349 323.195C86.5536 323.195 85.4216 322.565 84.639 321.304C83.8564 320.043 83.4651 318.221 83.4651 315.838C83.4651 313.469 83.8564 311.654 84.639 310.393C85.4216 309.133 86.5536 308.502 88.0349 308.502ZM84.9534 315.838C84.9534 317.529 85.1072 318.852 85.4146 319.808L90.0683 310.601C89.5791 309.95 88.9013 309.624 88.0349 309.624C87.0706 309.624 86.316 310.137 85.771 311.162C85.2259 312.174 84.9534 313.732 84.9534 315.838ZM88.0349 322.052C89.0131 322.052 89.7748 321.546 90.3198 320.535C90.8648 319.51 91.1373 317.944 91.1373 315.838C91.1373 314.051 90.9627 312.665 90.6133 311.682L85.9596 320.971C86.4627 321.692 87.1545 322.052 88.0349 322.052Z" fill="url(#paint2_linear_122_130)" fill-opacity="0.6"/>
<path d="M89.2926 345.637H92.3741V346.738H84.3874V345.637H87.9511V333.957L84.5551 335.973L83.9682 335.038L88.1607 332.461H89.2926V345.637Z" fill="url(#paint3_linear_122_130)" fill-opacity="0.6"/>
<path d="M89.2926 369.388H92.3741V370.489H84.3874V369.388H87.9511V357.708L84.5551 359.724L83.9682 358.789L88.1607 356.212H89.2926V369.388Z" fill="url(#paint4_linear_122_130)" fill-opacity="0.6"/>
<path d="M88.0349 379.755C89.5302 379.755 90.6622 380.386 91.4308 381.646C92.2134 382.893 92.6047 384.708 92.6047 387.091C92.6047 389.474 92.2134 391.296 91.4308 392.557C90.6622 393.818 89.5302 394.448 88.0349 394.448C86.5536 394.448 85.4216 393.818 84.639 392.557C83.8564 391.296 83.4651 389.474 83.4651 387.091C83.4651 384.722 83.8564 382.907 84.639 381.646C85.4216 380.386 86.5536 379.755 88.0349 379.755ZM84.9534 387.091C84.9534 388.782 85.1072 390.105 85.4146 391.061L90.0683 381.854C89.5791 381.203 88.9013 380.878 88.0349 380.878C87.0706 380.878 86.316 381.39 85.771 382.415C85.2259 383.427 84.9534 384.985 84.9534 387.091ZM88.0349 393.305C89.0131 393.305 89.7748 392.8 90.3198 391.788C90.8648 390.763 91.1373 389.197 91.1373 387.091C91.1373 385.304 90.9627 383.919 90.6133 382.935L85.9596 392.225C86.4627 392.945 87.1545 393.305 88.0349 393.305Z" fill="url(#paint5_linear_122_130)" fill-opacity="0.6"/>
<path d="M89.2926 416.89H92.3741V417.992H84.3874V416.89H87.9511V405.21L84.5551 407.226L83.9682 406.291L88.1607 403.714H89.2926V416.89Z" fill="url(#paint6_linear_122_130)" fill-opacity="0.6"/>
<path d="M88.0349 427.257C89.5302 427.257 90.6622 427.888 91.4308 429.149C92.2134 430.396 92.6047 432.211 92.6047 434.594C92.6047 436.977 92.2134 438.798 91.4308 440.059C90.6622 441.32 89.5302 441.95 88.0349 441.95C86.5536 441.95 85.4216 441.32 84.639 440.059C83.8564 438.798 83.4651 436.977 83.4651 434.594C83.4651 432.224 83.8564 430.409 84.639 429.149C85.4216 427.888 86.5536 427.257 88.0349 427.257ZM84.9534 434.594C84.9534 436.284 85.1072 437.607 85.4146 438.563L90.0683 429.356C89.5791 428.705 88.9013 428.38 88.0349 428.38C87.0706 428.38 86.316 428.892 85.771 429.918C85.2259 430.929 84.9534 432.488 84.9534 434.594ZM88.0349 440.807C89.0131 440.807 89.7748 440.302 90.3198 439.29C90.8648 438.265 91.1373 436.699 91.1373 434.594C91.1373 432.806 90.9627 431.421 90.6133 430.437L85.9596 439.727C86.4627 440.447 87.1545 440.807 88.0349 440.807Z" fill="url(#paint7_linear_122_130)" fill-opacity="0.6"/>
<path d="M88.0349 451.008C89.5302 451.008 90.6622 451.639 91.4308 452.9C92.2134 454.147 92.6047 455.962 92.6047 458.345C92.6047 460.728 92.2134 462.549 91.4308 463.81C90.6622 465.071 89.5302 465.701 88.0349 465.701C86.5536 465.701 85.4216 465.071 84.639 463.81C83.8564 462.549 83.4651 460.728 83.4651 458.345C83.4651 455.975 83.8564 454.16 84.639 452.9C85.4216 451.639 86.5536 451.008 88.0349 451.008ZM84.9534 458.345C84.9534 460.035 85.1072 461.358 85.4146 462.314L90.0683 453.107C89.5791 452.456 88.9013 452.131 88.0349 452.131C87.0706 452.131 86.316 452.643 85.771 453.669C85.2259 454.68 84.9534 456.239 84.9534 458.345ZM88.0349 464.558C89.0131 464.558 89.7748 464.053 90.3198 463.041C90.8648 462.016 91.1373 460.451 91.1373 458.345C91.1373 456.557 90.9627 455.172 90.6133 454.188L85.9596 463.478C86.4627 464.198 87.1545 464.558 88.0349 464.558Z" fill="url(#paint8_linear_122_130)" fill-opacity="0.6"/>
<path d="M89.2926 488.143H92.3741V489.245H84.3874V488.143H87.9511V476.464L84.5551 478.48L83.9682 477.544L88.1607 474.967H89.2926V488.143Z" fill="url(#paint9_linear_122_130)" fill-opacity="0.6"/>
<path d="M88.0349 498.511C89.5302 498.511 90.6622 499.141 91.4308 500.402C92.2134 501.649 92.6047 503.464 92.6047 505.847C92.6047 508.23 92.2134 510.052 91.4308 511.312C90.6622 512.573 89.5302 513.204 88.0349 513.204C86.5536 513.204 85.4216 512.573 84.639 511.312C83.8564 510.052 83.4651 508.23 83.4651 505.847C83.4651 503.478 83.8564 501.663 84.639 500.402C85.4216 499.141 86.5536 498.511 88.0349 498.511ZM84.9534 505.847C84.9534 507.537 85.1072 508.86 85.4146 509.816L90.0683 500.61C89.5791 499.958 88.9013 499.633 88.0349 499.633C87.0706 499.633 86.316 500.145 85.771 501.171C85.2259 502.182 84.9534 503.741 84.9534 505.847ZM88.0349 512.061C89.0131 512.061 89.7748 511.555 90.3198 510.543C90.8648 509.518 91.1373 507.953 91.1373 505.847C91.1373 504.059 90.9627 502.674 90.6133 501.69L85.9596 510.98C86.4627 511.7 87.1545 512.061 88.0349 512.061Z" fill="url(#paint10_linear_122_130)" fill-opacity="0.6"/>
<path d="M89.2926 535.645H92.3741V536.747H84.3874V535.645H87.9511V523.966L84.5551 525.982L83.9682 525.046L88.1607 522.469H89.2926V535.645Z" fill="url(#paint11_linear_122_130)" fill-opacity="0.6"/>
<path d="M89.2926 559.396H92.3741V560.498H84.3874V559.396H87.9511V547.717L84.5551 549.733L83.9682 548.798L88.1607 546.221H89.2926V559.396Z" fill="url(#paint12_linear_122_130)" fill-opacity="0.6"/>
<path d="M126.965 308.502C128.46 308.502 129.592 309.133 130.361 310.393C131.144 311.64 131.535 313.455 131.535 315.838C131.535 318.221 131.144 320.043 130.361 321.304C129.592 322.565 128.46 323.195 126.965 323.195C125.484 323.195 124.352 322.565 123.569 321.304C122.787 320.043 122.395 318.221 122.395 315.838C122.395 313.469 122.787 311.654 123.569 310.393C124.352 309.133 125.484 308.502 126.965 308.502ZM123.884 315.838C123.884 317.529 124.037 318.852 124.345 319.808L128.998 310.601C128.509 309.95 127.832 309.624 126.965 309.624C126.001 309.624 125.246 310.137 124.701 311.162C124.156 312.174 123.884 313.732 123.884 315.838ZM126.965 322.052C127.943 322.052 128.705 321.546 129.25 320.535C129.795 319.51 130.068 317.944 130.068 315.838C130.068 314.051 129.893 312.665 129.543 311.682L124.89 320.971C125.393 321.692 126.085 322.052 126.965 322.052Z" fill="url(#paint13_linear_122_130)" fill-opacity="0.6"/>
<path d="M128.223 345.637H131.304V346.738H123.318V345.637H126.881V333.957L123.485 335.973L122.898 335.038L127.091 332.461H128.223V345.637Z" fill="url(#paint14_linear_122_130)" fill-opacity="0.6"/>
<path d="M126.965 356.004C128.46 356.004 129.592 356.635 130.361 357.895C131.144 359.142 131.535 360.957 131.535 363.34C131.535 365.723 131.144 367.545 130.361 368.806C129.592 370.067 128.46 370.697 126.965 370.697C125.484 370.697 124.352 370.067 123.569 368.806C122.787 367.545 122.395 365.723 122.395 363.34C122.395 360.971 122.787 359.156 123.569 357.895C124.352 356.635 125.484 356.004 126.965 356.004ZM123.884 363.34C123.884 365.031 124.037 366.354 124.345 367.31L128.998 358.103C128.509 357.452 127.832 357.126 126.965 357.126C126.001 357.126 125.246 357.639 124.701 358.664C124.156 359.676 123.884 361.234 123.884 363.34ZM126.965 369.554C127.943 369.554 128.705 369.049 129.25 368.037C129.795 367.012 130.068 365.446 130.068 363.34C130.068 361.553 129.893 360.168 129.543 359.184L124.89 368.474C125.393 369.194 126.085 369.554 126.965 369.554Z" fill="url(#paint15_linear_122_130)" fill-opacity="0.6"/>
<path d="M126.965 379.755C128.46 379.755 129.592 380.386 130.361 381.646C131.144 382.893 131.535 384.708 131.535 387.091C131.535 389.474 131.144 391.296 130.361 392.557C129.592 393.818 128.46 394.448 126.965 394.448C125.484 394.448 124.352 393.818 123.569 392.557C122.787 391.296 122.395 389.474 122.395 387.091C122.395 384.722 122.787 382.907 123.569 381.646C124.352 380.386 125.484 379.755 126.965 379.755ZM123.884 387.091C123.884 388.782 124.037 390.105 124.345 391.061L128.998 381.854C128.509 381.203 127.832 380.878 126.965 380.878C126.001 380.878 125.246 381.39 124.701 382.415C124.156 383.427 123.884 384.985 123.884 387.091ZM126.965 393.305C127.943 393.305 128.705 392.8 129.25 391.788C129.795 390.763 130.068 389.197 130.068 387.091C130.068 385.304 129.893 383.919 129.543 382.935L124.89 392.225C125.393 392.945 126.085 393.305 126.965 393.305Z" fill="url(#paint16_linear_122_130)" fill-opacity="0.6"/>
<path d="M128.223 416.89H131.304V417.992H123.318V416.89H126.881V405.21L123.485 407.226L122.898 406.291L127.091 403.714H128.223V416.89Z" fill="url(#paint17_linear_122_130)" fill-opacity="0.6"/>
<path d="M126.965 427.257C128.46 427.257 129.592 427.888 130.361 429.149C131.144 430.396 131.535 432.211 131.535 434.594C131.535 436.977 131.144 438.798 130.361 440.059C129.592 441.32 128.46 441.95 126.965 441.95C125.484 441.95 124.352 441.32 123.569 440.059C122.787 438.798 122.395 436.977 122.395 434.594C122.395 432.224 122.787 430.409 123.569 429.149C124.352 427.888 125.484 427.257 126.965 427.257ZM123.884 434.594C123.884 436.284 124.037 437.607 124.345 438.563L128.998 429.356C128.509 428.705 127.832 428.38 126.965 428.38C126.001 428.38 125.246 428.892 124.701 429.918C124.156 430.929 123.884 432.488 123.884 434.594ZM126.965 440.807C127.943 440.807 128.705 440.302 129.25 439.29C129.795 438.265 130.068 436.699 130.068 434.594C130.068 432.806 129.893 431.421 129.543 430.437L124.89 439.727C125.393 440.447 126.085 440.807 126.965 440.807Z" fill="url(#paint18_linear_122_130)" fill-opacity="0.6"/>
<path d="M128.223 464.392H131.304V465.494H123.318V464.392H126.881V452.713L123.485 454.728L122.898 453.793L127.091 451.216H128.223V464.392Z" fill="url(#paint19_linear_122_130)" fill-opacity="0.6"/>
<path d="M126.965 474.76C128.46 474.76 129.592 475.39 130.361 476.651C131.144 477.898 131.535 479.713 131.535 482.096C131.535 484.479 131.144 486.301 130.361 487.561C129.592 488.822 128.46 489.453 126.965 489.453C125.484 489.453 124.352 488.822 123.569 487.561C122.787 486.301 122.395 484.479 122.395 482.096C122.395 479.726 122.787 477.911 123.569 476.651C124.352 475.39 125.484 474.76 126.965 474.76ZM123.884 482.096C123.884 483.786 124.037 485.109 124.345 486.065L128.998 476.859C128.509 476.207 127.832 475.882 126.965 475.882C126.001 475.882 125.246 476.394 124.701 477.42C124.156 478.431 123.884 479.99 123.884 482.096ZM126.965 488.31C127.943 488.31 128.705 487.804 129.25 486.792C129.795 485.767 130.068 484.202 130.068 482.096C130.068 480.308 129.893 478.923 129.543 477.939L124.89 487.229C125.393 487.949 126.085 488.31 126.965 488.31Z" fill="url(#paint20_linear_122_130)" fill-opacity="0.6"/>
<path d="M126.965 498.511C128.46 498.511 129.592 499.141 130.361 500.402C131.144 501.649 131.535 503.464 131.535 505.847C131.535 508.23 131.144 510.052 130.361 511.312C129.592 512.573 128.46 513.204 126.965 513.204C125.484 513.204 124.352 512.573 123.569 511.312C122.787 510.052 122.395 508.23 122.395 505.847C122.395 503.478 122.787 501.663 123.569 500.402C124.352 499.141 125.484 498.511 126.965 498.511ZM123.884 505.847C123.884 507.537 124.037 508.86 124.345 509.816L128.998 500.61C128.509 499.958 127.832 499.633 126.965 499.633C126.001 499.633 125.246 500.145 124.701 501.171C124.156 502.182 123.884 503.741 123.884 505.847ZM126.965 512.061C127.943 512.061 128.705 511.555 129.25 510.543C129.795 509.518 130.068 507.953 130.068 505.847C130.068 504.059 129.893 502.674 129.543 501.69L124.89 510.98C125.393 511.7 126.085 512.061 126.965 512.061Z" fill="url(#paint21_linear_122_130)" fill-opacity="0.6"/>
<path d="M128.223 535.645H131.304V536.747H123.318V535.645H126.881V523.966L123.485 525.982L122.898 525.046L127.091 522.469H128.223V535.645Z" fill="url(#paint22_linear_122_130)" fill-opacity="0.6"/>
<path d="M126.965 546.013C128.46 546.013 129.592 546.643 130.361 547.904C131.144 549.151 131.535 550.966 131.535 553.349C131.535 555.732 131.144 557.554 130.361 558.815C129.592 560.075 128.46 560.706 126.965 560.706C125.484 560.706 124.352 560.075 123.569 558.815C122.787 557.554 122.395 555.732 122.395 553.349C122.395 550.98 122.787 549.165 123.569 547.904C124.352 546.643 125.484 546.013 126.965 546.013ZM123.884 553.349C123.884 555.039 124.037 556.362 124.345 557.318L128.998 548.112C128.509 547.461 127.832 547.135 126.965 547.135C126.001 547.135 125.246 547.648 124.701 548.673C124.156 549.684 123.884 551.243 123.884 553.349ZM126.965 559.563C127.943 559.563 128.705 559.057 129.25 558.046C129.795 557.02 130.068 555.455 130.068 553.349C130.068 551.562 129.893 550.176 129.543 549.192L124.89 558.482C125.393 559.202 126.085 559.563 126.965 559.563Z" fill="url(#paint23_linear_122_130)" fill-opacity="0.6"/>
<path d="M128.223 583.148H131.304V584.249H123.318V583.148H126.881V571.468L123.485 573.484L122.898 572.549L127.091 569.972H128.223V583.148Z" fill="url(#paint24_linear_122_130)" fill-opacity="0.6"/>
<path d="M128.223 606.899H131.304V608H123.318V606.899H126.881V595.219L123.485 597.235L122.898 596.3L127.091 593.723H128.223V606.899Z" fill="url(#paint25_linear_122_130)" fill-opacity="0.6"/>
<path d="M68.5698 332.253C70.0651 332.253 71.1971 332.884 71.9657 334.144C72.7483 335.391 73.1396 337.206 73.1396 339.589C73.1396 341.972 72.7483 343.794 71.9657 345.055C71.1971 346.316 70.0651 346.946 68.5698 346.946C67.0885 346.946 65.9565 346.316 65.1739 345.055C64.3913 343.794 64 341.972 64 339.589C64 337.22 64.3913 335.405 65.1739 334.144C65.9565 332.884 67.0885 332.253 68.5698 332.253ZM65.4883 339.589C65.4883 341.28 65.6421 342.603 65.9495 343.559L70.6032 334.352C70.114 333.701 69.4363 333.375 68.5698 333.375C67.6055 333.375 66.8509 333.888 66.3059 334.913C65.7608 335.925 65.4883 337.483 65.4883 339.589ZM68.5698 345.803C69.5481 345.803 70.3097 345.297 70.8547 344.286C71.3997 343.261 71.6722 341.695 71.6722 339.589C71.6722 337.802 71.4976 336.417 71.1482 335.433L66.4945 344.722C66.9976 345.443 67.6894 345.803 68.5698 345.803Z" fill="url(#paint26_linear_122_130)" fill-opacity="0.6"/>
<path d="M68.5698 356.004C70.0651 356.004 71.1971 356.635 71.9657 357.895C72.7483 359.142 73.1396 360.957 73.1396 363.34C73.1396 365.723 72.7483 367.545 71.9657 368.806C71.1971 370.067 70.0651 370.697 68.5698 370.697C67.0885 370.697 65.9565 370.067 65.1739 368.806C64.3913 367.545 64 365.723 64 363.34C64 360.971 64.3913 359.156 65.1739 357.895C65.9565 356.635 67.0885 356.004 68.5698 356.004ZM65.4883 363.34C65.4883 365.031 65.6421 366.354 65.9495 367.31L70.6032 358.103C70.114 357.452 69.4363 357.126 68.5698 357.126C67.6055 357.126 66.8509 357.639 66.3059 358.664C65.7608 359.676 65.4883 361.234 65.4883 363.34ZM68.5698 369.554C69.5481 369.554 70.3097 369.049 70.8547 368.037C71.3997 367.012 71.6722 365.446 71.6722 363.34C71.6722 361.553 71.4976 360.168 71.1482 359.184L66.4945 368.474C66.9976 369.194 67.6894 369.554 68.5698 369.554Z" fill="url(#paint27_linear_122_130)" fill-opacity="0.6"/>
<path d="M69.8276 393.139H72.909V394.24H64.9223V393.139H68.486V381.459L65.09 383.475L64.5031 382.54L68.6956 379.963H69.8276V393.139Z" fill="url(#paint28_linear_122_130)" fill-opacity="0.6"/>
<path d="M68.5698 403.506C70.0651 403.506 71.1971 404.137 71.9657 405.398C72.7483 406.644 73.1396 408.459 73.1396 410.842C73.1396 413.225 72.7483 415.047 71.9657 416.308C71.1971 417.569 70.0651 418.199 68.5698 418.199C67.0885 418.199 65.9565 417.569 65.1739 416.308C64.3913 415.047 64 413.225 64 410.842C64 408.473 64.3913 406.658 65.1739 405.398C65.9565 404.137 67.0885 403.506 68.5698 403.506ZM65.4883 410.842C65.4883 412.533 65.6421 413.856 65.9495 414.812L70.6032 405.605C70.114 404.954 69.4363 404.629 68.5698 404.629C67.6055 404.629 66.8509 405.141 66.3059 406.166C65.7608 407.178 65.4883 408.737 65.4883 410.842ZM68.5698 417.056C69.5481 417.056 70.3097 416.551 70.8547 415.539C71.3997 414.514 71.6722 412.948 71.6722 410.842C71.6722 409.055 71.4976 407.67 71.1482 406.686L66.4945 415.976C66.9976 416.696 67.6894 417.056 68.5698 417.056Z" fill="url(#paint29_linear_122_130)" fill-opacity="0.6"/>
<path d="M69.8276 440.641H72.909V441.743H64.9223V440.641H68.486V428.962L65.09 430.977L64.5031 430.042L68.6956 427.465H69.8276V440.641Z" fill="url(#paint30_linear_122_130)" fill-opacity="0.6"/>
<path d="M69.8276 464.392H72.909V465.494H64.9223V464.392H68.486V452.713L65.09 454.728L64.5031 453.793L68.6956 451.216H69.8276V464.392Z" fill="url(#paint31_linear_122_130)" fill-opacity="0.6"/>
<path d="M108.758 298.135H111.839V299.236H103.853V298.135H107.416V286.455L104.02 288.471L103.433 287.536L107.626 284.959H108.758V298.135Z" fill="url(#paint32_linear_122_130)" fill-opacity="0.6"/>
<path d="M107.5 308.502C108.995 308.502 110.127 309.133 110.896 310.393C111.679 311.64 112.07 313.455 112.07 315.838C112.07 318.221 111.679 320.043 110.896 321.304C110.127 322.565 108.995 323.195 107.5 323.195C106.019 323.195 104.887 322.565 104.104 321.304C103.321 320.043 102.93 318.221 102.93 315.838C102.93 313.469 103.321 311.654 104.104 310.393C104.887 309.133 106.019 308.502 107.5 308.502ZM104.419 315.838C104.419 317.529 104.572 318.852 104.88 319.808L109.533 310.601C109.044 309.95 108.366 309.624 107.5 309.624C106.536 309.624 105.781 310.137 105.236 311.162C104.691 312.174 104.419 313.732 104.419 315.838ZM107.5 322.052C108.478 322.052 109.24 321.546 109.785 320.535C110.33 319.51 110.602 317.944 110.602 315.838C110.602 314.051 110.428 312.665 110.078 311.682L105.425 320.971C105.928 321.692 106.62 322.052 107.5 322.052Z" fill="url(#paint33_linear_122_130)" fill-opacity="0.6"/>
<path d="M108.758 345.637H111.839V346.738H103.853V345.637H107.416V333.957L104.02 335.973L103.433 335.038L107.626 332.461H108.758V345.637Z" fill="url(#paint34_linear_122_130)" fill-opacity="0.6"/>
<path d="M108.758 369.388H111.839V370.489H103.853V369.388H107.416V357.708L104.02 359.724L103.433 358.789L107.626 356.212H108.758V369.388Z" fill="url(#paint35_linear_122_130)" fill-opacity="0.6"/>
<path d="M107.5 379.755C108.995 379.755 110.127 380.386 110.896 381.646C111.679 382.893 112.07 384.708 112.07 387.091C112.07 389.474 111.679 391.296 110.896 392.557C110.127 393.818 108.995 394.448 107.5 394.448C106.019 394.448 104.887 393.818 104.104 392.557C103.321 391.296 102.93 389.474 102.93 387.091C102.93 384.722 103.321 382.907 104.104 381.646C104.887 380.386 106.019 379.755 107.5 379.755ZM104.419 387.091C104.419 388.782 104.572 390.105 104.88 391.061L109.533 381.854C109.044 381.203 108.366 380.878 107.5 380.878C106.536 380.878 105.781 381.39 105.236 382.415C104.691 383.427 104.419 384.985 104.419 387.091ZM107.5 393.305C108.478 393.305 109.24 392.8 109.785 391.788C110.33 390.763 110.602 389.197 110.602 387.091C110.602 385.304 110.428 383.919 110.078 382.935L105.425 392.225C105.928 392.945 106.62 393.305 107.5 393.305Z" fill="url(#paint36_linear_122_130)" fill-opacity="0.6"/>
<path d="M108.758 416.89H111.839V417.992H103.853V416.89H107.416V405.21L104.02 407.226L103.433 406.291L107.626 403.714H108.758V416.89Z" fill="url(#paint37_linear_122_130)" fill-opacity="0.6"/>
<path d="M108.758 440.641H111.839V441.743H103.853V440.641H107.416V428.962L104.02 430.977L103.433 430.042L107.626 427.465H108.758V440.641Z" fill="url(#paint38_linear_122_130)" fill-opacity="0.6"/>
<path d="M107.5 451.008C108.995 451.008 110.127 451.639 110.896 452.9C111.679 454.147 112.07 455.962 112.07 458.345C112.07 460.728 111.679 462.549 110.896 463.81C110.127 465.071 108.995 465.701 107.5 465.701C106.019 465.701 104.887 465.071 104.104 463.81C103.321 462.549 102.93 460.728 102.93 458.345C102.93 455.975 103.321 454.16 104.104 452.9C104.887 451.639 106.019 451.008 107.5 451.008ZM104.419 458.345C104.419 460.035 104.572 461.358 104.88 462.314L109.533 453.107C109.044 452.456 108.366 452.131 107.5 452.131C106.536 452.131 105.781 452.643 105.236 453.669C104.691 454.68 104.419 456.239 104.419 458.345ZM107.5 464.558C108.478 464.558 109.24 464.053 109.785 463.041C110.33 462.016 110.602 460.451 110.602 458.345C110.602 456.557 110.428 455.172 110.078 454.188L105.425 463.478C105.928 464.198 106.62 464.558 107.5 464.558Z" fill="url(#paint39_linear_122_130)" fill-opacity="0.6"/>
<path d="M108.758 488.143H111.839V489.245H103.853V488.143H107.416V476.464L104.02 478.48L103.433 477.544L107.626 474.967H108.758V488.143Z" fill="url(#paint40_linear_122_130)" fill-opacity="0.6"/>
<path d="M107.5 498.511C108.995 498.511 110.127 499.141 110.896 500.402C111.679 501.649 112.07 503.464 112.07 505.847C112.07 508.23 111.679 510.052 110.896 511.312C110.127 512.573 108.995 513.204 107.5 513.204C106.019 513.204 104.887 512.573 104.104 511.312C103.321 510.052 102.93 508.23 102.93 505.847C102.93 503.478 103.321 501.663 104.104 500.402C104.887 499.141 106.019 498.511 107.5 498.511ZM104.419 505.847C104.419 507.537 104.572 508.86 104.88 509.816L109.533 500.61C109.044 499.958 108.366 499.633 107.5 499.633C106.536 499.633 105.781 500.145 105.236 501.171C104.691 502.182 104.419 503.741 104.419 505.847ZM107.5 512.061C108.478 512.061 109.24 511.555 109.785 510.543C110.33 509.518 110.602 507.953 110.602 505.847C110.602 504.059 110.428 502.674 110.078 501.69L105.425 510.98C105.928 511.7 106.62 512.061 107.5 512.061Z" fill="url(#paint41_linear_122_130)" fill-opacity="0.6"/>
<path d="M146.43 284.751C147.926 284.751 149.057 285.381 149.826 286.642C150.609 287.889 151 289.704 151 292.087C151 294.47 150.609 296.292 149.826 297.553C149.057 298.814 147.926 299.444 146.43 299.444C144.949 299.444 143.817 298.814 143.034 297.553C142.252 296.292 141.86 294.47 141.86 292.087C141.86 289.718 142.252 287.903 143.034 286.642C143.817 285.381 144.949 284.751 146.43 284.751ZM143.349 292.087C143.349 293.777 143.502 295.101 143.81 296.057L148.464 286.85C147.974 286.199 147.297 285.873 146.43 285.873C145.466 285.873 144.711 286.386 144.166 287.411C143.621 288.423 143.349 289.981 143.349 292.087ZM146.43 298.301C147.408 298.301 148.17 297.795 148.715 296.784C149.26 295.759 149.533 294.193 149.533 292.087C149.533 290.3 149.358 288.914 149.009 287.931L144.355 297.22C144.858 297.941 145.55 298.301 146.43 298.301Z" fill="url(#paint42_linear_122_130)" fill-opacity="0.6"/>
<path d="M147.688 321.886H150.769V322.987H142.783V321.886H146.346V310.206L142.95 312.222L142.363 311.287L146.556 308.71H147.688V321.886Z" fill="url(#paint43_linear_122_130)" fill-opacity="0.6"/>
<path d="M147.688 345.637H150.769V346.738H142.783V345.637H146.346V333.957L142.95 335.973L142.363 335.038L146.556 332.461H147.688V345.637Z" fill="url(#paint44_linear_122_130)" fill-opacity="0.6"/>
<path d="M146.43 356.004C147.926 356.004 149.057 356.635 149.826 357.895C150.609 359.142 151 360.957 151 363.34C151 365.723 150.609 367.545 149.826 368.806C149.057 370.067 147.926 370.697 146.43 370.697C144.949 370.697 143.817 370.067 143.034 368.806C142.252 367.545 141.86 365.723 141.86 363.34C141.86 360.971 142.252 359.156 143.034 357.895C143.817 356.635 144.949 356.004 146.43 356.004ZM143.349 363.34C143.349 365.031 143.502 366.354 143.81 367.31L148.464 358.103C147.974 357.452 147.297 357.126 146.43 357.126C145.466 357.126 144.711 357.639 144.166 358.664C143.621 359.676 143.349 361.234 143.349 363.34ZM146.43 369.554C147.408 369.554 148.17 369.049 148.715 368.037C149.26 367.012 149.533 365.446 149.533 363.34C149.533 361.553 149.358 360.168 149.009 359.184L144.355 368.474C144.858 369.194 145.55 369.554 146.43 369.554Z" fill="url(#paint45_linear_122_130)" fill-opacity="0.6"/>
<path d="M146.43 379.755C147.926 379.755 149.057 380.386 149.826 381.646C150.609 382.893 151 384.708 151 387.091C151 389.474 150.609 391.296 149.826 392.557C149.057 393.818 147.926 394.448 146.43 394.448C144.949 394.448 143.817 393.818 143.034 392.557C142.252 391.296 141.86 389.474 141.86 387.091C141.86 384.722 142.252 382.907 143.034 381.646C143.817 380.386 144.949 379.755 146.43 379.755ZM143.349 387.091C143.349 388.782 143.502 390.105 143.81 391.061L148.464 381.854C147.974 381.203 147.297 380.878 146.43 380.878C145.466 380.878 144.711 381.39 144.166 382.415C143.621 383.427 143.349 384.985 143.349 387.091ZM146.43 393.305C147.408 393.305 148.17 392.8 148.715 391.788C149.26 390.763 149.533 389.197 149.533 387.091C149.533 385.304 149.358 383.919 149.009 382.935L144.355 392.225C144.858 392.945 145.55 393.305 146.43 393.305Z" fill="url(#paint46_linear_122_130)" fill-opacity="0.6"/>
<g opacity="0.6">
<path d="M974.93 -39C976.356 -39 977.436 -38.395 978.17 -37.1851C978.916 -35.9885 979.29 -34.2468 979.29 -31.9599C979.29 -29.673 978.916 -27.9246 978.17 -26.7147C977.436 -25.5048 976.356 -24.8998 974.93 -24.8998C973.517 -24.8998 972.437 -25.5048 971.69 -26.7147C970.943 -27.9246 970.57 -29.673 970.57 -31.9599C970.57 -34.2335 970.943 -35.9752 971.69 -37.1851C972.437 -38.395 973.517 -39 974.93 -39ZM971.99 -31.9599C971.99 -30.3378 972.137 -29.068 972.43 -28.1506L976.87 -36.9857C976.403 -37.6106 975.756 -37.923 974.93 -37.923C974.01 -37.923 973.29 -37.4311 972.77 -36.4472C972.25 -35.4766 971.99 -33.9808 971.99 -31.9599ZM974.93 -25.9967C975.863 -25.9967 976.59 -26.482 977.11 -27.4526C977.63 -28.4365 977.89 -29.9389 977.89 -31.9599C977.89 -33.675 977.723 -35.0046 977.39 -35.9486L972.95 -27.0338C973.43 -26.3424 974.09 -25.9967 974.93 -25.9967Z" fill="url(#paint47_linear_122_130)"/>
<path d="M976.13 -3.36345H979.07V-2.30644H971.45V-3.36345H974.85V-14.5718L971.61 -12.6373L971.05 -13.5347L975.05 -16.0078H976.13V-3.36345Z" fill="url(#paint48_linear_122_130)"/>
<path d="M974.93 6.58561C976.356 6.58561 977.436 7.19057 978.17 8.40048C978.916 9.59711 979.29 11.3389 979.29 13.6257C979.29 15.9126 978.916 17.661 978.17 18.8709C977.436 20.0808 976.356 20.6858 974.93 20.6858C973.517 20.6858 972.437 20.0808 971.69 18.8709C970.943 17.661 970.57 15.9126 970.57 13.6257C970.57 11.3522 970.943 9.6104 971.69 8.40048C972.437 7.19057 973.517 6.58561 974.93 6.58561ZM971.99 13.6257C971.99 15.2478 972.137 16.5176 972.43 17.435L976.87 8.59992C976.403 7.97502 975.756 7.66256 974.93 7.66256C974.01 7.66256 973.29 8.15451 972.77 9.1384C972.25 10.109 971.99 11.6048 971.99 13.6257ZM974.93 19.5889C975.863 19.5889 976.59 19.1036 977.11 18.133C977.63 17.1491 977.89 15.6467 977.89 13.6257C977.89 11.9106 977.723 10.581 977.39 9.63699L972.95 18.5518C973.43 19.2432 974.09 19.5889 974.93 19.5889Z" fill="url(#paint49_linear_122_130)"/>
<path d="M976.13 42.2221H979.07V43.2792H971.45V42.2221H974.85V31.0138L971.61 32.9483L971.05 32.0509L975.05 29.5778H976.13V42.2221Z" fill="url(#paint50_linear_122_130)"/>
<path d="M976.13 65.015H979.07V66.072H971.45V65.015H974.85V53.8066L971.61 55.7411L971.05 54.8437L975.05 52.3706H976.13V65.015Z" fill="url(#paint51_linear_122_130)"/>
<path d="M974.93 74.964C976.356 74.964 977.436 75.569 978.17 76.7789C978.916 77.9755 979.29 79.7173 979.29 82.0041C979.29 84.291 978.916 86.0394 978.17 87.2493C977.436 88.4593 976.356 89.0642 974.93 89.0642C973.517 89.0642 972.437 88.4593 971.69 87.2493C970.943 86.0394 970.57 84.291 970.57 82.0041C970.57 79.7306 970.943 77.9888 971.69 76.7789C972.437 75.569 973.517 74.964 974.93 74.964ZM971.99 82.0041C971.99 83.6262 972.137 84.896 972.43 85.8134L976.87 76.9783C976.403 76.3534 975.756 76.041 974.93 76.041C974.01 76.041 973.29 76.5329 972.77 77.5168C972.25 78.4874 971.99 79.9832 971.99 82.0041ZM974.93 87.9673C975.863 87.9673 976.59 87.482 977.11 86.5114C977.63 85.5275 977.89 84.0251 977.89 82.0041C977.89 80.289 977.723 78.9594 977.39 78.0154L972.95 86.9302C973.43 87.6216 974.09 87.9673 974.93 87.9673Z" fill="url(#paint52_linear_122_130)"/>
<path d="M976.13 110.601H979.07V111.658H971.45V110.601H974.85V99.3922L971.61 101.327L971.05 100.429L975.05 97.9562H976.13V110.601Z" fill="url(#paint53_linear_122_130)"/>
<path d="M974.93 120.55C976.356 120.55 977.436 121.155 978.17 122.365C978.916 123.561 979.29 125.303 979.29 127.59C979.29 129.877 978.916 131.625 978.17 132.835C977.436 134.045 976.356 134.65 974.93 134.65C973.517 134.65 972.437 134.045 971.69 132.835C970.943 131.625 970.57 129.877 970.57 127.59C970.57 125.316 970.943 123.574 971.69 122.365C972.437 121.155 973.517 120.55 974.93 120.55ZM971.99 127.59C971.99 129.212 972.137 130.482 972.43 131.399L976.87 122.564C976.403 121.939 975.756 121.627 974.93 121.627C974.01 121.627 973.29 122.119 972.77 123.102C972.25 124.073 971.99 125.569 971.99 127.59ZM974.93 133.553C975.863 133.553 976.59 133.068 977.11 132.097C977.63 131.113 977.89 129.611 977.89 127.59C977.89 125.875 977.723 124.545 977.39 123.601L972.95 132.516C973.43 133.207 974.09 133.553 974.93 133.553Z" fill="url(#paint54_linear_122_130)"/>
<path d="M974.93 143.342C976.356 143.342 977.436 143.947 978.17 145.157C978.916 146.354 979.29 148.096 979.29 150.383C979.29 152.669 978.916 154.418 978.17 155.628C977.436 156.838 976.356 157.443 974.93 157.443C973.517 157.443 972.437 156.838 971.69 155.628C970.943 154.418 970.57 152.669 970.57 150.383C970.57 148.109 970.943 146.367 971.69 145.157C972.437 143.947 973.517 143.342 974.93 143.342ZM971.99 150.383C971.99 152.005 972.137 153.274 972.43 154.192L976.87 145.357C976.403 144.732 975.756 144.419 974.93 144.419C974.01 144.419 973.29 144.911 972.77 145.895C972.25 146.866 971.99 148.362 971.99 150.383ZM974.93 156.346C975.863 156.346 976.59 155.86 977.11 154.89C977.63 153.906 977.89 152.404 977.89 150.383C977.89 148.667 977.723 147.338 977.39 146.394L972.95 155.309C973.43 156 974.09 156.346 974.93 156.346Z" fill="url(#paint55_linear_122_130)"/>
<path d="M976.13 178.979H979.07V180.036H971.45V178.979H974.85V167.771L971.61 169.705L971.05 168.808L975.05 166.335H976.13V178.979Z" fill="url(#paint56_linear_122_130)"/>
<path d="M974.93 188.928C976.356 188.928 977.436 189.533 978.17 190.743C978.916 191.94 979.29 193.681 979.29 195.968C979.29 198.255 978.916 200.003 978.17 201.213C977.436 202.423 976.356 203.028 974.93 203.028C973.517 203.028 972.437 202.423 971.69 201.213C970.943 200.003 970.57 198.255 970.57 195.968C970.57 193.695 970.943 191.953 971.69 190.743C972.437 189.533 973.517 188.928 974.93 188.928ZM971.99 195.968C971.99 197.59 972.137 198.86 972.43 199.777L976.87 190.942C976.403 190.317 975.756 190.005 974.93 190.005C974.01 190.005 973.29 190.497 972.77 191.481C972.25 192.451 971.99 193.947 971.99 195.968ZM974.93 201.931C975.863 201.931 976.59 201.446 977.11 200.475C977.63 199.492 977.89 197.989 977.89 195.968C977.89 194.253 977.723 192.923 977.39 191.979L972.95 200.894C973.43 201.586 974.09 201.931 974.93 201.931Z" fill="url(#paint57_linear_122_130)"/>
<path d="M976.13 224.565H979.07V225.622H971.45V224.565H974.85V213.356L971.61 215.291L971.05 214.393L975.05 211.92H976.13V224.565Z" fill="url(#paint58_linear_122_130)"/>
<path d="M976.13 247.357H979.07V248.414H971.45V247.357H974.85V236.149L971.61 238.084L971.05 237.186L975.05 234.713H976.13V247.357Z" fill="url(#paint59_linear_122_130)"/>
<path d="M1012.07 6.58561C1013.5 6.58561 1014.58 7.19057 1015.31 8.40048C1016.06 9.59711 1016.43 11.3389 1016.43 13.6257C1016.43 15.9126 1016.06 17.661 1015.31 18.8709C1014.58 20.0808 1013.5 20.6858 1012.07 20.6858C1010.66 20.6858 1009.58 20.0808 1008.83 18.8709C1008.08 17.661 1007.71 15.9126 1007.71 13.6257C1007.71 11.3522 1008.08 9.6104 1008.83 8.40048C1009.58 7.19057 1010.66 6.58561 1012.07 6.58561ZM1009.13 13.6257C1009.13 15.2478 1009.28 16.5176 1009.57 17.435L1014.01 8.59992C1013.54 7.97502 1012.9 7.66256 1012.07 7.66256C1011.15 7.66256 1010.43 8.15451 1009.91 9.1384C1009.39 10.109 1009.13 11.6048 1009.13 13.6257ZM1012.07 19.5889C1013 19.5889 1013.73 19.1036 1014.25 18.133C1014.77 17.1491 1015.03 15.6467 1015.03 13.6257C1015.03 11.9106 1014.86 10.581 1014.53 9.63699L1010.09 18.5518C1010.57 19.2432 1011.23 19.5889 1012.07 19.5889Z" fill="url(#paint60_linear_122_130)"/>
<path d="M1013.27 42.2221H1016.21V43.2792H1008.59V42.2221H1011.99V31.0138L1008.75 32.9483L1008.19 32.0509L1012.19 29.5778H1013.27V42.2221Z" fill="url(#paint61_linear_122_130)"/>
<path d="M1012.07 52.1712C1013.5 52.1712 1014.58 52.7762 1015.31 53.9861C1016.06 55.1827 1016.43 56.9245 1016.43 59.2113C1016.43 61.4982 1016.06 63.2466 1015.31 64.4565C1014.58 65.6664 1013.5 66.2714 1012.07 66.2714C1010.66 66.2714 1009.58 65.6664 1008.83 64.4565C1008.08 63.2466 1007.71 61.4982 1007.71 59.2113C1007.71 56.9378 1008.08 55.196 1008.83 53.9861C1009.58 52.7762 1010.66 52.1712 1012.07 52.1712ZM1009.13 59.2113C1009.13 60.8334 1009.28 62.1032 1009.57 63.0206L1014.01 54.1855C1013.54 53.5606 1012.9 53.2482 1012.07 53.2482C1011.15 53.2482 1010.43 53.7401 1009.91 54.724C1009.39 55.6946 1009.13 57.1904 1009.13 59.2113ZM1012.07 65.1745C1013 65.1745 1013.73 64.6892 1014.25 63.7186C1014.77 62.7347 1015.03 61.2323 1015.03 59.2113C1015.03 57.4962 1014.86 56.1666 1014.53 55.2226L1010.09 64.1374C1010.57 64.8288 1011.23 65.1745 1012.07 65.1745Z" fill="url(#paint62_linear_122_130)"/>
<path d="M1012.07 74.964C1013.5 74.964 1014.58 75.569 1015.31 76.7789C1016.06 77.9755 1016.43 79.7173 1016.43 82.0041C1016.43 84.291 1016.06 86.0394 1015.31 87.2493C1014.58 88.4593 1013.5 89.0642 1012.07 89.0642C1010.66 89.0642 1009.58 88.4593 1008.83 87.2493C1008.08 86.0394 1007.71 84.291 1007.71 82.0041C1007.71 79.7306 1008.08 77.9888 1008.83 76.7789C1009.58 75.569 1010.66 74.964 1012.07 74.964ZM1009.13 82.0041C1009.13 83.6262 1009.28 84.896 1009.57 85.8134L1014.01 76.9783C1013.54 76.3534 1012.9 76.041 1012.07 76.041C1011.15 76.041 1010.43 76.5329 1009.91 77.5168C1009.39 78.4874 1009.13 79.9832 1009.13 82.0041ZM1012.07 87.9673C1013 87.9673 1013.73 87.482 1014.25 86.5114C1014.77 85.5275 1015.03 84.0251 1015.03 82.0041C1015.03 80.289 1014.86 78.9594 1014.53 78.0154L1010.09 86.9302C1010.57 87.6216 1011.23 87.9673 1012.07 87.9673Z" fill="url(#paint63_linear_122_130)"/>
<path d="M1013.27 110.601H1016.21V111.658H1008.59V110.601H1011.99V99.3922L1008.75 101.327L1008.19 100.429L1012.19 97.9562H1013.27V110.601Z" fill="url(#paint64_linear_122_130)"/>
<path d="M1012.07 120.55C1013.5 120.55 1014.58 121.155 1015.31 122.365C1016.06 123.561 1016.43 125.303 1016.43 127.59C1016.43 129.877 1016.06 131.625 1015.31 132.835C1014.58 134.045 1013.5 134.65 1012.07 134.65C1010.66 134.65 1009.58 134.045 1008.83 132.835C1008.08 131.625 1007.71 129.877 1007.71 127.59C1007.71 125.316 1008.08 123.574 1008.83 122.365C1009.58 121.155 1010.66 120.55 1012.07 120.55ZM1009.13 127.59C1009.13 129.212 1009.28 130.482 1009.57 131.399L1014.01 122.564C1013.54 121.939 1012.9 121.627 1012.07 121.627C1011.15 121.627 1010.43 122.119 1009.91 123.102C1009.39 124.073 1009.13 125.569 1009.13 127.59ZM1012.07 133.553C1013 133.553 1013.73 133.068 1014.25 132.097C1014.77 131.113 1015.03 129.611 1015.03 127.59C1015.03 125.875 1014.86 124.545 1014.53 123.601L1010.09 132.516C1010.57 133.207 1011.23 133.553 1012.07 133.553Z" fill="url(#paint65_linear_122_130)"/>
<path d="M1013.27 156.186H1016.21V157.243H1008.59V156.186H1011.99V144.978L1008.75 146.912L1008.19 146.015L1012.19 143.542H1013.27V156.186Z" fill="url(#paint66_linear_122_130)"/>
<path d="M1012.07 166.135C1013.5 166.135 1014.58 166.74 1015.31 167.95C1016.06 169.147 1016.43 170.888 1016.43 173.175C1016.43 175.462 1016.06 177.211 1015.31 178.421C1014.58 179.63 1013.5 180.235 1012.07 180.235C1010.66 180.235 1009.58 179.63 1008.83 178.421C1008.08 177.211 1007.71 175.462 1007.71 173.175C1007.71 170.902 1008.08 169.16 1008.83 167.95C1009.58 166.74 1010.66 166.135 1012.07 166.135ZM1009.13 173.175C1009.13 174.797 1009.28 176.067 1009.57 176.985L1014.01 168.15C1013.54 167.525 1012.9 167.212 1012.07 167.212C1011.15 167.212 1010.43 167.704 1009.91 168.688C1009.39 169.659 1009.13 171.154 1009.13 173.175ZM1012.07 179.139C1013 179.139 1013.73 178.653 1014.25 177.683C1014.77 176.699 1015.03 175.196 1015.03 173.175C1015.03 171.46 1014.86 170.131 1014.53 169.187L1010.09 178.101C1010.57 178.793 1011.23 179.139 1012.07 179.139Z" fill="url(#paint67_linear_122_130)"/>
<path d="M1012.07 188.928C1013.5 188.928 1014.58 189.533 1015.31 190.743C1016.06 191.94 1016.43 193.681 1016.43 195.968C1016.43 198.255 1016.06 200.003 1015.31 201.213C1014.58 202.423 1013.5 203.028 1012.07 203.028C1010.66 203.028 1009.58 202.423 1008.83 201.213C1008.08 200.003 1007.71 198.255 1007.71 195.968C1007.71 193.695 1008.08 191.953 1008.83 190.743C1009.58 189.533 1010.66 188.928 1012.07 188.928ZM1009.13 195.968C1009.13 197.59 1009.28 198.86 1009.57 199.777L1014.01 190.942C1013.54 190.317 1012.9 190.005 1012.07 190.005C1011.15 190.005 1010.43 190.497 1009.91 191.481C1009.39 192.451 1009.13 193.947 1009.13 195.968ZM1012.07 201.931C1013 201.931 1013.73 201.446 1014.25 200.475C1014.77 199.492 1015.03 197.989 1015.03 195.968C1015.03 194.253 1014.86 192.923 1014.53 191.979L1010.09 200.894C1010.57 201.586 1011.23 201.931 1012.07 201.931Z" fill="url(#paint68_linear_122_130)"/>
<path d="M1013.27 224.565H1016.21V225.622H1008.59V224.565H1011.99V213.356L1008.75 215.291L1008.19 214.393L1012.19 211.92H1013.27V224.565Z" fill="url(#paint69_linear_122_130)"/>
<path d="M1012.07 234.514C1013.5 234.514 1014.58 235.119 1015.31 236.329C1016.06 237.525 1016.43 239.267 1016.43 241.554C1016.43 243.841 1016.06 245.589 1015.31 246.799C1014.58 248.009 1013.5 248.614 1012.07 248.614C1010.66 248.614 1009.58 248.009 1008.83 246.799C1008.08 245.589 1007.71 243.841 1007.71 241.554C1007.71 239.28 1008.08 237.538 1008.83 236.329C1009.58 235.119 1010.66 234.514 1012.07 234.514ZM1009.13 241.554C1009.13 243.176 1009.28 244.446 1009.57 245.363L1014.01 236.528C1013.54 235.903 1012.9 235.591 1012.07 235.591C1011.15 235.591 1010.43 236.083 1009.91 237.066C1009.39 238.037 1009.13 239.533 1009.13 241.554ZM1012.07 247.517C1013 247.517 1013.73 247.032 1014.25 246.061C1014.77 245.077 1015.03 243.575 1015.03 241.554C1015.03 239.839 1014.86 238.509 1014.53 237.565L1010.09 246.48C1010.57 247.171 1011.23 247.517 1012.07 247.517Z" fill="url(#paint70_linear_122_130)"/>
<path d="M1013.27 270.15H1016.21V271.207H1008.59V270.15H1011.99V258.942L1008.75 260.876L1008.19 259.979L1012.19 257.506H1013.27V270.15Z" fill="url(#paint71_linear_122_130)"/>
<path d="M1013.27 292.943H1016.21V294H1008.59V292.943H1011.99V281.735L1008.75 283.669L1008.19 282.772L1012.19 280.299H1013.27V292.943Z" fill="url(#paint72_linear_122_130)"/>
<path d="M956.36 29.3784C957.786 29.3784 958.866 29.9834 959.599 31.1933C960.346 32.3899 960.719 34.1317 960.719 36.4185C960.719 38.7054 960.346 40.4538 959.599 41.6637C958.866 42.8736 957.786 43.4786 956.36 43.4786C954.946 43.4786 953.867 42.8736 953.12 41.6637C952.373 40.4538 952 38.7054 952 36.4185C952 34.145 952.373 32.4032 953.12 31.1933C953.867 29.9834 954.946 29.3784 956.36 29.3784ZM953.42 36.4185C953.42 38.0406 953.567 39.3104 953.86 40.2278L958.3 31.3927C957.833 30.7678 957.186 30.4554 956.36 30.4554C955.44 30.4554 954.72 30.9473 954.2 31.9312C953.68 32.9018 953.42 34.3976 953.42 36.4185ZM956.36 42.3817C957.293 42.3817 958.02 41.8964 958.54 40.9258C959.06 39.9419 959.319 38.4395 959.319 36.4185C959.319 34.7034 959.153 33.3738 958.82 32.4298L954.38 41.3446C954.86 42.036 955.52 42.3817 956.36 42.3817Z" fill="url(#paint73_linear_122_130)"/>
<path d="M956.36 52.1712C957.786 52.1712 958.866 52.7762 959.599 53.9861C960.346 55.1827 960.719 56.9245 960.719 59.2113C960.719 61.4982 960.346 63.2466 959.599 64.4565C958.866 65.6664 957.786 66.2714 956.36 66.2714C954.946 66.2714 953.867 65.6664 953.12 64.4565C952.373 63.2466 952 61.4982 952 59.2113C952 56.9378 952.373 55.196 953.12 53.9861C953.867 52.7762 954.946 52.1712 956.36 52.1712ZM953.42 59.2113C953.42 60.8334 953.567 62.1032 953.86 63.0206L958.3 54.1855C957.833 53.5606 957.186 53.2482 956.36 53.2482C955.44 53.2482 954.72 53.7401 954.2 54.724C953.68 55.6946 953.42 57.1904 953.42 59.2113ZM956.36 65.1745C957.293 65.1745 958.02 64.6892 958.54 63.7186C959.06 62.7347 959.319 61.2323 959.319 59.2113C959.319 57.4962 959.153 56.1666 958.82 55.2226L954.38 64.1374C954.86 64.8288 955.52 65.1745 956.36 65.1745Z" fill="url(#paint74_linear_122_130)"/>
<path d="M957.56 87.8078H960.499V88.8648H952.88V87.8078H956.28V76.5994L953.04 78.5339L952.48 77.6365L956.48 75.1635H957.56V87.8078Z" fill="url(#paint75_linear_122_130)"/>
<path d="M956.36 97.7568C957.786 97.7568 958.866 98.3618 959.599 99.5717C960.346 100.768 960.719 102.51 960.719 104.797C960.719 107.084 960.346 108.832 959.599 110.042C958.866 111.252 957.786 111.857 956.36 111.857C954.946 111.857 953.867 111.252 953.12 110.042C952.373 108.832 952 107.084 952 104.797C952 102.523 952.373 100.782 953.12 99.5717C953.867 98.3618 954.946 97.7568 956.36 97.7568ZM953.42 104.797C953.42 106.419 953.567 107.689 953.86 108.606L958.3 99.7711C957.833 99.1462 957.186 98.8338 956.36 98.8338C955.44 98.8338 954.72 99.3257 954.2 100.31C953.68 101.28 953.42 102.776 953.42 104.797ZM956.36 110.76C957.293 110.76 958.02 110.275 958.54 109.304C959.06 108.32 959.319 106.818 959.319 104.797C959.319 103.082 959.153 101.752 958.82 100.808L954.38 109.723C954.86 110.414 955.52 110.76 956.36 110.76Z" fill="url(#paint76_linear_122_130)"/>
<path d="M957.56 133.393H960.499V134.45H952.88V133.393H956.28V122.185L953.04 124.12L952.48 123.222L956.48 120.749H957.56V133.393Z" fill="url(#paint77_linear_122_130)"/>
<path d="M957.56 156.186H960.499V157.243H952.88V156.186H956.28V144.978L953.04 146.912L952.48 146.015L956.48 143.542H957.56V156.186Z" fill="url(#paint78_linear_122_130)"/>
<path d="M994.7 -3.36345H997.64V-2.30644H990.02V-3.36345H993.42V-14.5718L990.18 -12.6373L989.62 -13.5347L993.62 -16.0078H994.7V-3.36345Z" fill="url(#paint79_linear_122_130)"/>
<path d="M993.5 6.58561C994.927 6.58561 996.006 7.19057 996.74 8.40048C997.486 9.59711 997.86 11.3389 997.86 13.6257C997.86 15.9126 997.486 17.661 996.74 18.8709C996.006 20.0808 994.927 20.6858 993.5 20.6858C992.087 20.6858 991.007 20.0808 990.26 18.8709C989.514 17.661 989.14 15.9126 989.14 13.6257C989.14 11.3522 989.514 9.6104 990.26 8.40048C991.007 7.19057 992.087 6.58561 993.5 6.58561ZM990.56 13.6257C990.56 15.2478 990.707 16.5176 991 17.435L995.44 8.59992C994.973 7.97502 994.327 7.66256 993.5 7.66256C992.58 7.66256 991.86 8.15451 991.34 9.1384C990.82 10.109 990.56 11.6048 990.56 13.6257ZM993.5 19.5889C994.433 19.5889 995.16 19.1036 995.68 18.133C996.2 17.1491 996.46 15.6467 996.46 13.6257C996.46 11.9106 996.293 10.581 995.96 9.63699L991.52 18.5518C992 19.2432 992.66 19.5889 993.5 19.5889Z" fill="url(#paint80_linear_122_130)"/>
<path d="M994.7 42.2221H997.64V43.2792H990.02V42.2221H993.42V31.0138L990.18 32.9483L989.62 32.0509L993.62 29.5778H994.7V42.2221Z" fill="url(#paint81_linear_122_130)"/>
<path d="M994.7 65.015H997.64V66.072H990.02V65.015H993.42V53.8066L990.18 55.7411L989.62 54.8437L993.62 52.3706H994.7V65.015Z" fill="url(#paint82_linear_122_130)"/>
<path d="M993.5 74.964C994.927 74.964 996.006 75.569 996.74 76.7789C997.486 77.9755 997.86 79.7173 997.86 82.0041C997.86 84.291 997.486 86.0394 996.74 87.2493C996.006 88.4593 994.927 89.0642 993.5 89.0642C992.087 89.0642 991.007 88.4593 990.26 87.2493C989.514 86.0394 989.14 84.291 989.14 82.0041C989.14 79.7306 989.514 77.9888 990.26 76.7789C991.007 75.569 992.087 74.964 993.5 74.964ZM990.56 82.0041C990.56 83.6262 990.707 84.896 991 85.8134L995.44 76.9783C994.973 76.3534 994.327 76.041 993.5 76.041C992.58 76.041 991.86 76.5329 991.34 77.5168C990.82 78.4874 990.56 79.9832 990.56 82.0041ZM993.5 87.9673C994.433 87.9673 995.16 87.482 995.68 86.5114C996.2 85.5275 996.46 84.0251 996.46 82.0041C996.46 80.289 996.293 78.9594 995.96 78.0154L991.52 86.9302C992 87.6216 992.66 87.9673 993.5 87.9673Z" fill="url(#paint83_linear_122_130)"/>
<path d="M994.7 110.601H997.64V111.658H990.02V110.601H993.42V99.3922L990.18 101.327L989.62 100.429L993.62 97.9562H994.7V110.601Z" fill="url(#paint84_linear_122_130)"/>
<path d="M994.7 133.393H997.64V134.45H990.02V133.393H993.42V122.185L990.18 124.12L989.62 123.222L993.62 120.749H994.7V133.393Z" fill="url(#paint85_linear_122_130)"/>
<path d="M993.5 143.342C994.927 143.342 996.006 143.947 996.74 145.157C997.486 146.354 997.86 148.096 997.86 150.383C997.86 152.669 997.486 154.418 996.74 155.628C996.006 156.838 994.927 157.443 993.5 157.443C992.087 157.443 991.007 156.838 990.26 155.628C989.514 154.418 989.14 152.669 989.14 150.383C989.14 148.109 989.514 146.367 990.26 145.157C991.007 143.947 992.087 143.342 993.5 143.342ZM990.56 150.383C990.56 152.005 990.707 153.274 991 154.192L995.44 145.357C994.973 144.732 994.327 144.419 993.5 144.419C992.58 144.419 991.86 144.911 991.34 145.895C990.82 146.866 990.56 148.362 990.56 150.383ZM993.5 156.346C994.433 156.346 995.16 155.86 995.68 154.89C996.2 153.906 996.46 152.404 996.46 150.383C996.46 148.667 996.293 147.338 995.96 146.394L991.52 155.309C992 156 992.66 156.346 993.5 156.346Z" fill="url(#paint86_linear_122_130)"/>
<path d="M994.7 178.979H997.64V180.036H990.02V178.979H993.42V167.771L990.18 169.705L989.62 168.808L993.62 166.335H994.7V178.979Z" fill="url(#paint87_linear_122_130)"/>
<path d="M993.5 188.928C994.927 188.928 996.006 189.533 996.74 190.743C997.486 191.94 997.86 193.681 997.86 195.968C997.86 198.255 997.486 200.003 996.74 201.213C996.006 202.423 994.927 203.028 993.5 203.028C992.087 203.028 991.007 202.423 990.26 201.213C989.514 200.003 989.14 198.255 989.14 195.968C989.14 193.695 989.514 191.953 990.26 190.743C991.007 189.533 992.087 188.928 993.5 188.928ZM990.56 195.968C990.56 197.59 990.707 198.86 991 199.777L995.44 190.942C994.973 190.317 994.327 190.005 993.5 190.005C992.58 190.005 991.86 190.497 991.34 191.481C990.82 192.451 990.56 193.947 990.56 195.968ZM993.5 201.931C994.433 201.931 995.16 201.446 995.68 200.475C996.2 199.492 996.46 197.989 996.46 195.968C996.46 194.253 996.293 192.923 995.96 191.979L991.52 200.894C992 201.586 992.66 201.931 993.5 201.931Z" fill="url(#paint88_linear_122_130)"/>
<path d="M1030.64 -16.2072C1032.07 -16.2072 1033.15 -15.6022 1033.88 -14.3923C1034.63 -13.1957 1035 -11.4539 1035 -9.16707C1035 -6.88019 1034.63 -5.13179 1033.88 -3.92188C1033.15 -2.71196 1032.07 -2.107 1030.64 -2.107C1029.23 -2.107 1028.15 -2.71196 1027.4 -3.92188C1026.65 -5.13179 1026.28 -6.88019 1026.28 -9.16707C1026.28 -11.4407 1026.65 -13.1824 1027.4 -14.3923C1028.15 -15.6022 1029.23 -16.2072 1030.64 -16.2072ZM1027.7 -9.16707C1027.7 -7.54498 1027.85 -6.27523 1028.14 -5.35782L1032.58 -14.1929C1032.11 -14.8178 1031.47 -15.1302 1030.64 -15.1302C1029.72 -15.1302 1029 -14.6383 1028.48 -13.6544C1027.96 -12.6838 1027.7 -11.188 1027.7 -9.16707ZM1030.64 -3.2039C1031.57 -3.2039 1032.3 -3.6892 1032.82 -4.65979C1033.34 -5.64368 1033.6 -7.14611 1033.6 -9.16707C1033.6 -10.8822 1033.43 -12.2118 1033.1 -13.1558L1028.66 -4.24098C1029.14 -3.5496 1029.8 -3.2039 1030.64 -3.2039Z" fill="url(#paint89_linear_122_130)"/>
<path d="M1031.84 19.4293H1034.78V20.4864H1027.16V19.4293H1030.56V8.22099L1027.32 10.1555L1026.76 9.25806L1030.76 6.78504H1031.84V19.4293Z" fill="url(#paint90_linear_122_130)"/>
<path d="M1031.84 42.2221H1034.78V43.2792H1027.16V42.2221H1030.56V31.0138L1027.32 32.9483L1026.76 32.0509L1030.76 29.5778H1031.84V42.2221Z" fill="url(#paint91_linear_122_130)"/>
<path d="M1030.64 52.1712C1032.07 52.1712 1033.15 52.7762 1033.88 53.9861C1034.63 55.1827 1035 56.9245 1035 59.2113C1035 61.4982 1034.63 63.2466 1033.88 64.4565C1033.15 65.6664 1032.07 66.2714 1030.64 66.2714C1029.23 66.2714 1028.15 65.6664 1027.4 64.4565C1026.65 63.2466 1026.28 61.4982 1026.28 59.2113C1026.28 56.9378 1026.65 55.196 1027.4 53.9861C1028.15 52.7762 1029.23 52.1712 1030.64 52.1712ZM1027.7 59.2113C1027.7 60.8334 1027.85 62.1032 1028.14 63.0206L1032.58 54.1855C1032.11 53.5606 1031.47 53.2482 1030.64 53.2482C1029.72 53.2482 1029 53.7401 1028.48 54.724C1027.96 55.6946 1027.7 57.1904 1027.7 59.2113ZM1030.64 65.1745C1031.57 65.1745 1032.3 64.6892 1032.82 63.7186C1033.34 62.7347 1033.6 61.2323 1033.6 59.2113C1033.6 57.4962 1033.43 56.1666 1033.1 55.2226L1028.66 64.1374C1029.14 64.8288 1029.8 65.1745 1030.64 65.1745Z" fill="url(#paint92_linear_122_130)"/>
<path d="M1030.64 74.964C1032.07 74.964 1033.15 75.569 1033.88 76.7789C1034.63 77.9755 1035 79.7173 1035 82.0041C1035 84.291 1034.63 86.0394 1033.88 87.2493C1033.15 88.4593 1032.07 89.0642 1030.64 89.0642C1029.23 89.0642 1028.15 88.4593 1027.4 87.2493C1026.65 86.0394 1026.28 84.291 1026.28 82.0041C1026.28 79.7306 1026.65 77.9888 1027.4 76.7789C1028.15 75.569 1029.23 74.964 1030.64 74.964ZM1027.7 82.0041C1027.7 83.6262 1027.85 84.896 1028.14 85.8134L1032.58 76.9783C1032.11 76.3534 1031.47 76.041 1030.64 76.041C1029.72 76.041 1029 76.5329 1028.48 77.5168C1027.96 78.4874 1027.7 79.9832 1027.7 82.0041ZM1030.64 87.9673C1031.57 87.9673 1032.3 87.482 1032.82 86.5114C1033.34 85.5275 1033.6 84.0251 1033.6 82.0041C1033.6 80.289 1033.43 78.9594 1033.1 78.0154L1028.66 86.9302C1029.14 87.6216 1029.8 87.9673 1030.64 87.9673Z" fill="url(#paint93_linear_122_130)"/>
</g>
</g>
<defs>
<filter id="filter0_f_122_130" x="-503.19" y="-725.19" width="2141.38" height="1500.38" filterUnits="userSpaceOnUse" color-interpolation-filters="sRGB">
<feFlood flood-opacity="0" result="BackgroundImageFix"/>
<feBlend mode="normal" in="SourceGraphic" in2="BackgroundImageFix" result="shape"/>
<feGaussianBlur stdDeviation="200.095" result="effect1_foregroundBlur_122_130"/>
</filter>
<linearGradient id="paint0_linear_122_130" x1="107.5" y1="261" x2="107.5" y2="572.381" gradientUnits="userSpaceOnUse">
<stop stop-color="#F7DD43"/>
<stop offset="1" stop-color="#F7DD43" stop-opacity="0"/>
</linearGradient>
<linearGradient id="paint1_linear_122_130" x1="107.5" y1="261" x2="107.5" y2="572.381" gradientUnits="userSpaceOnUse">
<stop stop-color="#F7DD43"/>
<stop offset="1" stop-color="#F7DD43" stop-opacity="0"/>
</linearGradient>
<linearGradient id="paint2_linear_122_130" x1="107.5" y1="261" x2="107.5" y2="572.381" gradientUnits="userSpaceOnUse">
<stop stop-color="#F7DD43"/>
<stop offset="1" stop-color="#F7DD43" stop-opacity="0"/>
</linearGradient>
<linearGradient id="paint3_linear_122_130" x1="107.5" y1="261" x2="107.5" y2="572.381" gradientUnits="userSpaceOnUse">
<stop stop-color="#F7DD43"/>
<stop offset="1" stop-color="#F7DD43" stop-opacity="0"/>
</linearGradient>
<linearGradient id="paint4_linear_122_130" x1="107.5" y1="261" x2="107.5" y2="572.381" gradientUnits="userSpaceOnUse">
<stop stop-color="#F7DD43"/>
<stop offset="1" stop-color="#F7DD43" stop-opacity="0"/>
</linearGradient>
<linearGradient id="paint5_linear_122_130" x1="107.5" y1="261" x2="107.5" y2="572.381" gradientUnits="userSpaceOnUse">
<stop stop-color="#F7DD43"/>
<stop offset="1" stop-color="#F7DD43" stop-opacity="0"/>
</linearGradient>
<linearGradient id="paint6_linear_122_130" x1="107.5" y1="261" x2="107.5" y2="572.381" gradientUnits="userSpaceOnUse">
<stop stop-color="#F7DD43"/>
<stop offset="1" stop-color="#F7DD43" stop-opacity="0"/>
</linearGradient>
<linearGradient id="paint7_linear_122_130" x1="107.5" y1="261" x2="107.5" y2="572.381" gradientUnits="userSpaceOnUse">
<stop stop-color="#F7DD43"/>
<stop offset="1" stop-color="#F7DD43" stop-opacity="0"/>
</linearGradient>
<linearGradient id="paint8_linear_122_130" x1="107.5" y1="261" x2="107.5" y2="572.381" gradientUnits="userSpaceOnUse">
<stop stop-color="#F7DD43"/>
<stop offset="1" stop-color="#F7DD43" stop-opacity="0"/>
</linearGradient>
<linearGradient id="paint9_linear_122_130" x1="107.5" y1="261" x2="107.5" y2="572.381" gradientUnits="userSpaceOnUse">
<stop stop-color="#F7DD43"/>
<stop offset="1" stop-color="#F7DD43" stop-opacity="0"/>
</linearGradient>
<linearGradient id="paint10_linear_122_130" x1="107.5" y1="261" x2="107.5" y2="572.381" gradientUnits="userSpaceOnUse">
<stop stop-color="#F7DD43"/>
<stop offset="1" stop-color="#F7DD43" stop-opacity="0"/>
</linearGradient>
<linearGradient id="paint11_linear_122_130" x1="107.5" y1="261" x2="107.5" y2="572.381" gradientUnits="userSpaceOnUse">
<stop stop-color="#F7DD43"/>
<stop offset="1" stop-color="#F7DD43" stop-opacity="0"/>
</linearGradient>
<linearGradient id="paint12_linear_122_130" x1="107.5" y1="261" x2="107.5" y2="572.381" gradientUnits="userSpaceOnUse">
<stop stop-color="#F7DD43"/>
<stop offset="1" stop-color="#F7DD43" stop-opacity="0"/>
</linearGradient>
<linearGradient id="paint13_linear_122_130" x1="107.5" y1="261" x2="107.5" y2="572.381" gradientUnits="userSpaceOnUse">
<stop stop-color="#F7DD43"/>
<stop offset="1" stop-color="#F7DD43" stop-opacity="0"/>
</linearGradient>
<linearGradient id="paint14_linear_122_130" x1="107.5" y1="261" x2="107.5" y2="572.381" gradientUnits="userSpaceOnUse">
<stop stop-color="#F7DD43"/>
<stop offset="1" stop-color="#F7DD43" stop-opacity="0"/>
</linearGradient>
<linearGradient id="paint15_linear_122_130" x1="107.5" y1="261" x2="107.5" y2="572.381" gradientUnits="userSpaceOnUse">
<stop stop-color="#F7DD43"/>
<stop offset="1" stop-color="#F7DD43" stop-opacity="0"/>
</linearGradient>
<linearGradient id="paint16_linear_122_130" x1="107.5" y1="261" x2="107.5" y2="572.381" gradientUnits="userSpaceOnUse">
<stop stop-color="#F7DD43"/>
<stop offset="1" stop-color="#F7DD43" stop-opacity="0"/>
</linearGradient>
<linearGradient id="paint17_linear_122_130" x1="107.5" y1="261" x2="107.5" y2="572.381" gradientUnits="userSpaceOnUse">
<stop stop-color="#F7DD43"/>
<stop offset="1" stop-color="#F7DD43" stop-opacity="0"/>
</linearGradient>
<linearGradient id="paint18_linear_122_130" x1="107.5" y1="261" x2="107.5" y2="572.381" gradientUnits="userSpaceOnUse">
<stop stop-color="#F7DD43"/>
<stop offset="1" stop-color="#F7DD43" stop-opacity="0"/>
</linearGradient>
<linearGradient id="paint19_linear_122_130" x1="107.5" y1="261" x2="107.5" y2="572.381" gradientUnits="userSpaceOnUse">
<stop stop-color="#F7DD43"/>
<stop offset="1" stop-color="#F7DD43" stop-opacity="0"/>
</linearGradient>
<linearGradient id="paint20_linear_122_130" x1="107.5" y1="261" x2="107.5" y2="572.381" gradientUnits="userSpaceOnUse">
<stop stop-color="#F7DD43"/>
<stop offset="1" stop-color="#F7DD43" stop-opacity="0"/>
</linearGradient>
<linearGradient id="paint21_linear_122_130" x1="107.5" y1="261" x2="107.5" y2="572.381" gradientUnits="userSpaceOnUse">
<stop stop-color="#F7DD43"/>
<stop offset="1" stop-color="#F7DD43" stop-opacity="0"/>
</linearGradient>
<linearGradient id="paint22_linear_122_130" x1="107.5" y1="261" x2="107.5" y2="572.381" gradientUnits="userSpaceOnUse">
<stop stop-color="#F7DD43"/>
<stop offset="1" stop-color="#F7DD43" stop-opacity="0"/>
</linearGradient>
<linearGradient id="paint23_linear_122_130" x1="107.5" y1="261" x2="107.5" y2="572.381" gradientUnits="userSpaceOnUse">
<stop stop-color="#F7DD43"/>
<stop offset="1" stop-color="#F7DD43" stop-opacity="0"/>
</linearGradient>
<linearGradient id="paint24_linear_122_130" x1="107.5" y1="261" x2="107.5" y2="572.381" gradientUnits="userSpaceOnUse">
<stop stop-color="#F7DD43"/>
<stop offset="1" stop-color="#F7DD43" stop-opacity="0"/>
</linearGradient>
<linearGradient id="paint25_linear_122_130" x1="107.5" y1="261" x2="107.5" y2="572.381" gradientUnits="userSpaceOnUse">
<stop stop-color="#F7DD43"/>
<stop offset="1" stop-color="#F7DD43" stop-opacity="0"/>
</linearGradient>
<linearGradient id="paint26_linear_122_130" x1="107.5" y1="261" x2="107.5" y2="572.381" gradientUnits="userSpaceOnUse">
<stop stop-color="#F7DD43"/>
<stop offset="1" stop-color="#F7DD43" stop-opacity="0"/>
</linearGradient>
<linearGradient id="paint27_linear_122_130" x1="107.5" y1="261" x2="107.5" y2="572.381" gradientUnits="userSpaceOnUse">
<stop stop-color="#F7DD43"/>
<stop offset="1" stop-color="#F7DD43" stop-opacity="0"/>
</linearGradient>
<linearGradient id="paint28_linear_122_130" x1="107.5" y1="261" x2="107.5" y2="572.381" gradientUnits="userSpaceOnUse">
<stop stop-color="#F7DD43"/>
<stop offset="1" stop-color="#F7DD43" stop-opacity="0"/>
</linearGradient>
<linearGradient id="paint29_linear_122_130" x1="107.5" y1="261" x2="107.5" y2="572.381" gradientUnits="userSpaceOnUse">
<stop stop-color="#F7DD43"/>
<stop offset="1" stop-color="#F7DD43" stop-opacity="0"/>
</linearGradient>
<linearGradient id="paint30_linear_122_130" x1="107.5" y1="261" x2="107.5" y2="572.381" gradientUnits="userSpaceOnUse">
<stop stop-color="#F7DD43"/>
<stop offset="1" stop-color="#F7DD43" stop-opacity="0"/>
</linearGradient>
<linearGradient id="paint31_linear_122_130" x1="107.5" y1="261" x2="107.5" y2="572.381" gradientUnits="userSpaceOnUse">
<stop stop-color="#F7DD43"/>
<stop offset="1" stop-color="#F7DD43" stop-opacity="0"/>
</linearGradient>
<linearGradient id="paint32_linear_122_130" x1="107.5" y1="261" x2="107.5" y2="572.381" gradientUnits="userSpaceOnUse">
<stop stop-color="#F7DD43"/>
<stop offset="1" stop-color="#F7DD43" stop-opacity="0"/>
</linearGradient>
<linearGradient id="paint33_linear_122_130" x1="107.5" y1="261" x2="107.5" y2="572.381" gradientUnits="userSpaceOnUse">
<stop stop-color="#F7DD43"/>
<stop offset="1" stop-color="#F7DD43" stop-opacity="0"/>
</linearGradient>
<linearGradient id="paint34_linear_122_130" x1="107.5" y1="261" x2="107.5" y2="572.381" gradientUnits="userSpaceOnUse">
<stop stop-color="#F7DD43"/>
<stop offset="1" stop-color="#F7DD43" stop-opacity="0"/>
</linearGradient>
<linearGradient id="paint35_linear_122_130" x1="107.5" y1="261" x2="107.5" y2="572.381" gradientUnits="userSpaceOnUse">
<stop stop-color="#F7DD43"/>
<stop offset="1" stop-color="#F7DD43" stop-opacity="0"/>
</linearGradient>
<linearGradient id="paint36_linear_122_130" x1="107.5" y1="261" x2="107.5" y2="572.381" gradientUnits="userSpaceOnUse">
<stop stop-color="#F7DD43"/>
<stop offset="1" stop-color="#F7DD43" stop-opacity="0"/>
</linearGradient>
<linearGradient id="paint37_linear_122_130" x1="107.5" y1="261" x2="107.5" y2="572.381" gradientUnits="userSpaceOnUse">
<stop stop-color="#F7DD43"/>
<stop offset="1" stop-color="#F7DD43" stop-opacity="0"/>
</linearGradient>
<linearGradient id="paint38_linear_122_130" x1="107.5" y1="261" x2="107.5" y2="572.381" gradientUnits="userSpaceOnUse">
<stop stop-color="#F7DD43"/>
<stop offset="1" stop-color="#F7DD43" stop-opacity="0"/>
</linearGradient>
<linearGradient id="paint39_linear_122_130" x1="107.5" y1="261" x2="107.5" y2="572.381" gradientUnits="userSpaceOnUse">
<stop stop-color="#F7DD43"/>
<stop offset="1" stop-color="#F7DD43" stop-opacity="0"/>
</linearGradient>
<linearGradient id="paint40_linear_122_130" x1="107.5" y1="261" x2="107.5" y2="572.381" gradientUnits="userSpaceOnUse">
<stop stop-color="#F7DD43"/>
<stop offset="1" stop-color="#F7DD43" stop-opacity="0"/>
</linearGradient>
<linearGradient id="paint41_linear_122_130" x1="107.5" y1="261" x2="107.5" y2="572.381" gradientUnits="userSpaceOnUse">
<stop stop-color="#F7DD43"/>
<stop offset="1" stop-color="#F7DD43" stop-opacity="0"/>
</linearGradient>
<linearGradient id="paint42_linear_122_130" x1="107.5" y1="261" x2="107.5" y2="572.381" gradientUnits="userSpaceOnUse">
<stop stop-color="#F7DD43"/>
<stop offset="1" stop-color="#F7DD43" stop-opacity="0"/>
</linearGradient>
<linearGradient id="paint43_linear_122_130" x1="107.5" y1="261" x2="107.5" y2="572.381" gradientUnits="userSpaceOnUse">
<stop stop-color="#F7DD43"/>
<stop offset="1" stop-color="#F7DD43" stop-opacity="0"/>
</linearGradient>
<linearGradient id="paint44_linear_122_130" x1="107.5" y1="261" x2="107.5" y2="572.381" gradientUnits="userSpaceOnUse">
<stop stop-color="#F7DD43"/>
<stop offset="1" stop-color="#F7DD43" stop-opacity="0"/>
</linearGradient>
<linearGradient id="paint45_linear_122_130" x1="107.5" y1="261" x2="107.5" y2="572.381" gradientUnits="userSpaceOnUse">
<stop stop-color="#F7DD43"/>
<stop offset="1" stop-color="#F7DD43" stop-opacity="0"/>
</linearGradient>
<linearGradient id="paint46_linear_122_130" x1="107.5" y1="261" x2="107.5" y2="572.381" gradientUnits="userSpaceOnUse">
<stop stop-color="#F7DD43"/>
<stop offset="1" stop-color="#F7DD43" stop-opacity="0"/>
</linearGradient>
<linearGradient id="paint47_linear_122_130" x1="993.5" y1="-39" x2="993.5" y2="259.818" gradientUnits="userSpaceOnUse">
<stop stop-color="#F7DD43"/>
<stop offset="1" stop-color="#F7DD43" stop-opacity="0"/>
</linearGradient>
<linearGradient id="paint48_linear_122_130" x1="993.5" y1="-39" x2="993.5" y2="259.818" gradientUnits="userSpaceOnUse">
<stop stop-color="#F7DD43"/>
<stop offset="1" stop-color="#F7DD43" stop-opacity="0"/>
</linearGradient>
<linearGradient id="paint49_linear_122_130" x1="993.5" y1="-39" x2="993.5" y2="259.818" gradientUnits="userSpaceOnUse">
<stop stop-color="#F7DD43"/>
<stop offset="1" stop-color="#F7DD43" stop-opacity="0"/>
</linearGradient>
<linearGradient id="paint50_linear_122_130" x1="993.5" y1="-39" x2="993.5" y2="259.818" gradientUnits="userSpaceOnUse">
<stop stop-color="#F7DD43"/>
<stop offset="1" stop-color="#F7DD43" stop-opacity="0"/>
</linearGradient>
<linearGradient id="paint51_linear_122_130" x1="993.5" y1="-39" x2="993.5" y2="259.818" gradientUnits="userSpaceOnUse">
<stop stop-color="#F7DD43"/>
<stop offset="1" stop-color="#F7DD43" stop-opacity="0"/>
</linearGradient>
<linearGradient id="paint52_linear_122_130" x1="993.5" y1="-39" x2="993.5" y2="259.818" gradientUnits="userSpaceOnUse">
<stop stop-color="#F7DD43"/>
<stop offset="1" stop-color="#F7DD43" stop-opacity="0"/>
</linearGradient>
<linearGradient id="paint53_linear_122_130" x1="993.5" y1="-39" x2="993.5" y2="259.818" gradientUnits="userSpaceOnUse">
<stop stop-color="#F7DD43"/>
<stop offset="1" stop-color="#F7DD43" stop-opacity="0"/>
</linearGradient>
<linearGradient id="paint54_linear_122_130" x1="993.5" y1="-39" x2="993.5" y2="259.818" gradientUnits="userSpaceOnUse">
<stop stop-color="#F7DD43"/>
<stop offset="1" stop-color="#F7DD43" stop-opacity="0"/>
</linearGradient>
<linearGradient id="paint55_linear_122_130" x1="993.5" y1="-39" x2="993.5" y2="259.818" gradientUnits="userSpaceOnUse">
<stop stop-color="#F7DD43"/>
<stop offset="1" stop-color="#F7DD43" stop-opacity="0"/>
</linearGradient>
<linearGradient id="paint56_linear_122_130" x1="993.5" y1="-39" x2="993.5" y2="259.818" gradientUnits="userSpaceOnUse">
<stop stop-color="#F7DD43"/>
<stop offset="1" stop-color="#F7DD43" stop-opacity="0"/>
</linearGradient>
<linearGradient id="paint57_linear_122_130" x1="993.5" y1="-39" x2="993.5" y2="259.818" gradientUnits="userSpaceOnUse">
<stop stop-color="#F7DD43"/>
<stop offset="1" stop-color="#F7DD43" stop-opacity="0"/>
</linearGradient>
<linearGradient id="paint58_linear_122_130" x1="993.5" y1="-39" x2="993.5" y2="259.818" gradientUnits="userSpaceOnUse">
<stop stop-color="#F7DD43"/>
<stop offset="1" stop-color="#F7DD43" stop-opacity="0"/>
</linearGradient>
<linearGradient id="paint59_linear_122_130" x1="993.5" y1="-39" x2="993.5" y2="259.818" gradientUnits="userSpaceOnUse">
<stop stop-color="#F7DD43"/>
<stop offset="1" stop-color="#F7DD43" stop-opacity="0"/>
</linearGradient>
<linearGradient id="paint60_linear_122_130" x1="993.5" y1="-39" x2="993.5" y2="259.818" gradientUnits="userSpaceOnUse">
<stop stop-color="#F7DD43"/>
<stop offset="1" stop-color="#F7DD43" stop-opacity="0"/>
</linearGradient>
<linearGradient id="paint61_linear_122_130" x1="993.5" y1="-39" x2="993.5" y2="259.818" gradientUnits="userSpaceOnUse">
<stop stop-color="#F7DD43"/>
<stop offset="1" stop-color="#F7DD43" stop-opacity="0"/>
</linearGradient>
<linearGradient id="paint62_linear_122_130" x1="993.5" y1="-39" x2="993.5" y2="259.818" gradientUnits="userSpaceOnUse">
<stop stop-color="#F7DD43"/>
<stop offset="1" stop-color="#F7DD43" stop-opacity="0"/>
</linearGradient>
<linearGradient id="paint63_linear_122_130" x1="993.5" y1="-39" x2="993.5" y2="259.818" gradientUnits="userSpaceOnUse">
<stop stop-color="#F7DD43"/>
<stop offset="1" stop-color="#F7DD43" stop-opacity="0"/>
</linearGradient>
<linearGradient id="paint64_linear_122_130" x1="993.5" y1="-39" x2="993.5" y2="259.818" gradientUnits="userSpaceOnUse">
<stop stop-color="#F7DD43"/>
<stop offset="1" stop-color="#F7DD43" stop-opacity="0"/>
</linearGradient>
<linearGradient id="paint65_linear_122_130" x1="993.5" y1="-39" x2="993.5" y2="259.818" gradientUnits="userSpaceOnUse">
<stop stop-color="#F7DD43"/>
<stop offset="1" stop-color="#F7DD43" stop-opacity="0"/>
</linearGradient>
<linearGradient id="paint66_linear_122_130" x1="993.5" y1="-39" x2="993.5" y2="259.818" gradientUnits="userSpaceOnUse">
<stop stop-color="#F7DD43"/>
<stop offset="1" stop-color="#F7DD43" stop-opacity="0"/>
</linearGradient>
<linearGradient id="paint67_linear_122_130" x1="993.5" y1="-39" x2="993.5" y2="259.818" gradientUnits="userSpaceOnUse">
<stop stop-color="#F7DD43"/>
<stop offset="1" stop-color="#F7DD43" stop-opacity="0"/>
</linearGradient>
<linearGradient id="paint68_linear_122_130" x1="993.5" y1="-39" x2="993.5" y2="259.818" gradientUnits="userSpaceOnUse">
<stop stop-color="#F7DD43"/>
<stop offset="1" stop-color="#F7DD43" stop-opacity="0"/>
</linearGradient>
<linearGradient id="paint69_linear_122_130" x1="993.5" y1="-39" x2="993.5" y2="259.818" gradientUnits="userSpaceOnUse">
<stop stop-color="#F7DD43"/>
<stop offset="1" stop-color="#F7DD43" stop-opacity="0"/>
</linearGradient>
<linearGradient id="paint70_linear_122_130" x1="993.5" y1="-39" x2="993.5" y2="259.818" gradientUnits="userSpaceOnUse">
<stop stop-color="#F7DD43"/>
<stop offset="1" stop-color="#F7DD43" stop-opacity="0"/>
</linearGradient>
<linearGradient id="paint71_linear_122_130" x1="993.5" y1="-39" x2="993.5" y2="259.818" gradientUnits="userSpaceOnUse">
<stop stop-color="#F7DD43"/>
<stop offset="1" stop-color="#F7DD43" stop-opacity="0"/>
</linearGradient>
<linearGradient id="paint72_linear_122_130" x1="993.5" y1="-39" x2="993.5" y2="259.818" gradientUnits="userSpaceOnUse">
<stop stop-color="#F7DD43"/>
<stop offset="1" stop-color="#F7DD43" stop-opacity="0"/>
</linearGradient>
<linearGradient id="paint73_linear_122_130" x1="993.5" y1="-39" x2="993.5" y2="259.818" gradientUnits="userSpaceOnUse">
<stop stop-color="#F7DD43"/>
<stop offset="1" stop-color="#F7DD43" stop-opacity="0"/>
</linearGradient>
<linearGradient id="paint74_linear_122_130" x1="993.5" y1="-39" x2="993.5" y2="259.818" gradientUnits="userSpaceOnUse">
<stop stop-color="#F7DD43"/>
<stop offset="1" stop-color="#F7DD43" stop-opacity="0"/>
</linearGradient>
<linearGradient id="paint75_linear_122_130" x1="993.5" y1="-39" x2="993.5" y2="259.818" gradientUnits="userSpaceOnUse">
<stop stop-color="#F7DD43"/>
<stop offset="1" stop-color="#F7DD43" stop-opacity="0"/>
</linearGradient>
<linearGradient id="paint76_linear_122_130" x1="993.5" y1="-39" x2="993.5" y2="259.818" gradientUnits="userSpaceOnUse">
<stop stop-color="#F7DD43"/>
<stop offset="1" stop-color="#F7DD43" stop-opacity="0"/>
</linearGradient>
<linearGradient id="paint77_linear_122_130" x1="993.5" y1="-39" x2="993.5" y2="259.818" gradientUnits="userSpaceOnUse">
<stop stop-color="#F7DD43"/>
<stop offset="1" stop-color="#F7DD43" stop-opacity="0"/>
</linearGradient>
<linearGradient id="paint78_linear_122_130" x1="993.5" y1="-39" x2="993.5" y2="259.818" gradientUnits="userSpaceOnUse">
<stop stop-color="#F7DD43"/>
<stop offset="1" stop-color="#F7DD43" stop-opacity="0"/>
</linearGradient>
<linearGradient id="paint79_linear_122_130" x1="993.5" y1="-39" x2="993.5" y2="259.818" gradientUnits="userSpaceOnUse">
<stop stop-color="#F7DD43"/>
<stop offset="1" stop-color="#F7DD43" stop-opacity="0"/>
</linearGradient>
<linearGradient id="paint80_linear_122_130" x1="993.5" y1="-39" x2="993.5" y2="259.818" gradientUnits="userSpaceOnUse">
<stop stop-color="#F7DD43"/>
<stop offset="1" stop-color="#F7DD43" stop-opacity="0"/>
</linearGradient>
<linearGradient id="paint81_linear_122_130" x1="993.5" y1="-39" x2="993.5" y2="259.818" gradientUnits="userSpaceOnUse">
<stop stop-color="#F7DD43"/>
<stop offset="1" stop-color="#F7DD43" stop-opacity="0"/>
</linearGradient>
<linearGradient id="paint82_linear_122_130" x1="993.5" y1="-39" x2="993.5" y2="259.818" gradientUnits="userSpaceOnUse">
<stop stop-color="#F7DD43"/>
<stop offset="1" stop-color="#F7DD43" stop-opacity="0"/>
</linearGradient>
<linearGradient id="paint83_linear_122_130" x1="993.5" y1="-39" x2="993.5" y2="259.818" gradientUnits="userSpaceOnUse">
<stop stop-color="#F7DD43"/>
<stop offset="1" stop-color="#F7DD43" stop-opacity="0"/>
</linearGradient>
<linearGradient id="paint84_linear_122_130" x1="993.5" y1="-39" x2="993.5" y2="259.818" gradientUnits="userSpaceOnUse">
<stop stop-color="#F7DD43"/>
<stop offset="1" stop-color="#F7DD43" stop-opacity="0"/>
</linearGradient>
<linearGradient id="paint85_linear_122_130" x1="993.5" y1="-39" x2="993.5" y2="259.818" gradientUnits="userSpaceOnUse">
<stop stop-color="#F7DD43"/>
<stop offset="1" stop-color="#F7DD43" stop-opacity="0"/>
</linearGradient>
<linearGradient id="paint86_linear_122_130" x1="993.5" y1="-39" x2="993.5" y2="259.818" gradientUnits="userSpaceOnUse">
<stop stop-color="#F7DD43"/>
<stop offset="1" stop-color="#F7DD43" stop-opacity="0"/>
</linearGradient>
<linearGradient id="paint87_linear_122_130" x1="993.5" y1="-39" x2="993.5" y2="259.818" gradientUnits="userSpaceOnUse">
<stop stop-color="#F7DD43"/>
<stop offset="1" stop-color="#F7DD43" stop-opacity="0"/>
</linearGradient>
<linearGradient id="paint88_linear_122_130" x1="993.5" y1="-39" x2="993.5" y2="259.818" gradientUnits="userSpaceOnUse">
<stop stop-color="#F7DD43"/>
<stop offset="1" stop-color="#F7DD43" stop-opacity="0"/>
</linearGradient>
<linearGradient id="paint89_linear_122_130" x1="993.5" y1="-39" x2="993.5" y2="259.818" gradientUnits="userSpaceOnUse">
<stop stop-color="#F7DD43"/>
<stop offset="1" stop-color="#F7DD43" stop-opacity="0"/>
</linearGradient>
<linearGradient id="paint90_linear_122_130" x1="993.5" y1="-39" x2="993.5" y2="259.818" gradientUnits="userSpaceOnUse">
<stop stop-color="#F7DD43"/>
<stop offset="1" stop-color="#F7DD43" stop-opacity="0"/>
</linearGradient>
<linearGradient id="paint91_linear_122_130" x1="993.5" y1="-39" x2="993.5" y2="259.818" gradientUnits="userSpaceOnUse">
<stop stop-color="#F7DD43"/>
<stop offset="1" stop-color="#F7DD43" stop-opacity="0"/>
</linearGradient>
<linearGradient id="paint92_linear_122_130" x1="993.5" y1="-39" x2="993.5" y2="259.818" gradientUnits="userSpaceOnUse">
<stop stop-color="#F7DD43"/>
<stop offset="1" stop-color="#F7DD43" stop-opacity="0"/>
</linearGradient>
<linearGradient id="paint93_linear_122_130" x1="993.5" y1="-39" x2="993.5" y2="259.818" gradientUnits="userSpaceOnUse">
<stop stop-color="#F7DD43"/>
<stop offset="1" stop-color="#F7DD43" stop-opacity="0"/>
</linearGradient>
<clipPath id="clip0_122_130">
<rect width="1024" height="753" fill="white"/>
</clipPath>
</defs>
</svg>
