<svg width="50" height="51" viewBox="0 0 50 51" fill="none" xmlns="http://www.w3.org/2000/svg">
<g clip-path="url(#clip0_175_343)">
<path d="M25 50.7275C38.8071 50.7275 50 39.5347 50 25.7275C50 11.9204 38.8071 0.727539 25 0.727539C11.1929 0.727539 0 11.9204 0 25.7275C0 39.5347 11.1929 50.7275 25 50.7275Z" fill="#F0F0F0"/>
<path d="M24.9998 0.727539C15.0883 0.727539 6.52422 6.49561 2.48047 14.858H47.519C43.4754 6.49561 34.9112 0.727539 24.9998 0.727539Z" fill="#338AF3"/>
<path d="M24.9998 50.7271C34.9112 50.7271 43.4754 44.9591 47.5191 36.5967H2.48047C6.52422 44.9591 15.0883 50.7271 24.9998 50.7271Z" fill="#338AF3"/>
<path d="M32.4717 25.7272L29.4185 27.1635L31.0443 30.1204L27.7289 29.4861L27.3088 32.8354L24.9995 30.3721L22.6901 32.8354L22.2701 29.4861L18.9547 30.1203L20.5805 27.1634L17.5273 25.7272L20.5806 24.291L18.9547 21.3342L22.27 21.9684L22.6902 18.6191L24.9995 21.0824L27.3089 18.6191L27.7289 21.9684L31.0444 21.3342L29.4186 24.2911L32.4717 25.7272Z" fill="#FFDA44"/>
</g>
<defs>
<clipPath id="clip0_175_343">
<rect width="50" height="50" fill="white" transform="translate(0 0.727539)"/>
</clipPath>
</defs>
</svg>
