<svg width="50" height="51" viewBox="0 0 50 51" fill="none" xmlns="http://www.w3.org/2000/svg">
<g clip-path="url(#clip0_175_380)">
<path d="M25 50.6367C38.8071 50.6367 50 39.4438 50 25.6367C50 11.8296 38.8071 0.636719 25 0.636719C11.1929 0.636719 0 11.8296 0 25.6367C0 39.4438 11.1929 50.6367 25 50.6367Z" fill="#F0F0F0"/>
<path d="M49.9996 25.6367C49.9996 11.8297 38.8066 0.636719 24.9996 0.636719C20.109 0.636719 15.5471 2.04248 11.6937 4.46982L17.1735 6.79805L9.78223 9.93848L17.1735 13.0788L9.78223 16.219L17.1735 19.3592L9.78223 22.4989L17.1735 25.6385L9.78223 28.7787L17.1735 31.9188L9.78223 35.0585L17.1735 38.1985L9.78223 41.3388L17.1735 44.4785L11.6962 46.8055C15.549 49.2316 20.11 50.6367 24.9996 50.6367C38.8066 50.6367 49.9996 39.4438 49.9996 25.6367Z" fill="#751A46"/>
</g>
<defs>
<clipPath id="clip0_175_380">
<rect width="50" height="50" fill="white" transform="translate(0 0.636719)"/>
</clipPath>
</defs>
</svg>
