<svg width="50" height="51" viewBox="0 0 50 51" fill="none" xmlns="http://www.w3.org/2000/svg">
<g clip-path="url(#clip0_175_343)">
<path d="M50 25.7275C50 39.5346 38.807 50.7275 25 50.7275C11.193 50.7275 0 39.5346 0 25.7275C0 25.7334 25 0.730371 25 0.727539C38.807 0.727539 50 11.9205 50 25.7275Z" fill="#0052B4"/>
<path d="M24.9336 25.7271H25.0005C25.0005 25.7044 25.0005 25.6827 25.0005 25.6602C24.9782 25.6825 24.956 25.7048 24.9336 25.7271Z" fill="#F0F0F0"/>
<path d="M25 13.771C25 9.37207 25 6.48955 25 0.727539H24.9958C11.1906 0.729785 0 11.9217 0 25.7274H13.0435V18.3825L20.3884 25.7274H24.9332C24.9556 25.7052 24.9778 25.6829 25.0001 25.6605C25.0001 23.9763 25.0001 22.4734 25.0001 21.116L17.6551 13.771H25Z" fill="#F0F0F0"/>
<path d="M12.6479 3.98828C8.73779 6.21475 5.48721 9.46533 3.26074 13.3754V25.7274H9.78252V10.5102V10.5101H24.9999C24.9999 8.45313 24.9999 6.49355 24.9999 3.98828H12.6479Z" fill="#D80027"/>
<path d="M24.9994 22.6536L16.1173 13.7715H13.043C13.043 13.7714 13.043 13.7715 13.043 13.7715L24.9993 25.7279H24.9994C24.9994 25.7279 24.9994 23.6082 24.9994 22.6536Z" fill="#D80027"/>
<path d="M15.0774 30.0752L16.4495 32.9441L19.5479 32.228L18.1604 35.0895L20.652 37.0654L17.5497 37.7646L17.5584 40.9447L15.0774 38.9552L12.5966 40.9447L12.6053 37.7646L9.50293 37.0654L11.9946 35.0895L10.6069 32.228L13.7055 32.9441L15.0774 30.0752Z" fill="#F0F0F0"/>
<path d="M37.4298 35.5098L38.1158 36.9442L39.665 36.5861L38.9712 38.0169L40.2171 39.0049L38.6659 39.3545L38.6702 40.9445L37.4298 39.9497L36.1894 40.9445L36.1937 39.3545L34.6426 39.0049L35.8884 38.0169L35.1946 36.5861L36.7438 36.9442L37.4298 35.5098Z" fill="#F0F0F0"/>
<path d="M31.048 20.292L31.734 21.7266L33.2832 21.3684L32.5895 22.7991L33.8353 23.7871L32.2842 24.1367L32.2884 25.7268L31.048 24.7319L29.8076 25.7268L29.8118 24.1367L28.2607 23.7871L29.5065 22.7991L28.8128 21.3684L30.362 21.7266L31.048 20.292Z" fill="#F0F0F0"/>
<path d="M37.4298 11.5967L38.1158 13.0312L39.665 12.6731L38.9713 14.1039L40.217 15.0918L38.6659 15.4415L38.6702 17.0315L37.4298 16.0367L36.1894 17.0315L36.1937 15.4415L34.6426 15.0918L35.8883 14.1039L35.1946 12.6731L36.7438 13.0312L37.4298 11.5967Z" fill="#F0F0F0"/>
<path d="M43.0041 18.1182L43.69 19.5527L45.2393 19.1945L44.5455 20.6253L45.7913 21.6133L44.2401 21.963L44.2444 23.5529L43.0041 22.5582L41.7637 23.5529L41.7679 21.963L40.2168 21.6133L41.4626 20.6253L40.7688 19.1945L42.318 19.5527L43.0041 18.1182Z" fill="#F0F0F0"/>
<path d="M39.0183 25.7275L39.5578 27.3883H41.3041L39.8913 28.4147L40.4311 30.0754L39.0183 29.049L37.6056 30.0754L38.1451 28.4147L36.7324 27.3883H38.4786L39.0183 25.7275Z" fill="#F0F0F0"/>
</g>
<defs>
<clipPath id="clip0_175_343">
<rect width="50" height="50" fill="white" transform="translate(0 0.727539)"/>
</clipPath>
</defs>
</svg>
