<svg width="50" height="51" viewBox="0 0 50 51" fill="none" xmlns="http://www.w3.org/2000/svg">
<g clip-path="url(#clip0_175_380)">
<path d="M25 50.6367C38.8071 50.6367 50 39.4438 50 25.6367C50 11.8296 38.8071 0.636719 25 0.636719C11.1929 0.636719 0 11.8296 0 25.6367C0 39.4438 11.1929 50.6367 25 50.6367Z" fill="#F0F0F0"/>
<path d="M33.1198 19.1153H29.8489C29.876 19.4748 29.8913 19.8375 29.8913 20.2022C29.8913 22.6206 29.2868 24.9646 28.233 26.6332C27.9079 27.1479 27.3616 27.8746 26.6304 28.3648V19.1152H23.3695V28.3648C22.6384 27.8746 22.092 27.148 21.7669 26.6332C20.713 24.9646 20.1086 22.6206 20.1086 20.2022C20.1086 19.8375 20.124 19.4747 20.151 19.1153H16.8801C16.8591 19.473 16.8477 19.8354 16.8477 20.2022C16.8477 26.9069 20.4285 32.1588 24.9998 32.1588C29.5711 32.1588 33.152 26.9069 33.152 20.2022C33.1522 19.8354 33.1407 19.473 33.1198 19.1153V19.1153Z" fill="#D80027"/>
<path d="M10.3259 12.5933H13.5867V14.7672H16.8476V12.5933H20.1084V14.7672H23.3692V12.5933H26.6301V14.7672H29.8909V12.5933H33.1518V14.7672H36.4126V12.5933H39.6734V14.7672H47.5188C43.4754 6.40479 34.9112 0.636719 24.9998 0.636719C15.0884 0.636719 6.52422 6.40479 2.48047 14.7672H10.3259V12.5933Z" fill="#6DA544"/>
<path d="M39.6737 36.5059V38.6798H36.4129V36.5059H33.1521V38.6798H29.8912V36.5059H26.6304V38.6798H23.3695V36.5059H20.1087V38.6798H16.8479V36.5059H13.5867V38.6798H10.3259V36.5059H2.48047C6.52422 44.8683 15.0883 50.6363 24.9998 50.6363C34.9113 50.6363 43.4754 44.8683 47.5191 36.5059H39.6737Z" fill="#D80027"/>
</g>
<defs>
<clipPath id="clip0_175_380">
<rect width="50" height="50" fill="white" transform="translate(0 0.636719)"/>
</clipPath>
</defs>
</svg>
