<svg width="50" height="51" viewBox="0 0 50 51" fill="none" xmlns="http://www.w3.org/2000/svg">
<g clip-path="url(#clip0_175_380)">
<path d="M25 50.6367C38.8071 50.6367 50 39.4438 50 25.6367C50 11.8296 38.8071 0.636719 25 0.636719C11.1929 0.636719 0 11.8296 0 25.6367C0 39.4438 11.1929 50.6367 25 50.6367Z" fill="#F0F0F0"/>
<path d="M49.7884 22.3759H28.261H28.2609V0.84834C27.1935 0.709375 26.1052 0.636719 25 0.636719C23.8948 0.636719 22.8065 0.709375 21.7392 0.84834V22.3757V22.3758H0.211621C0.0726563 23.4433 0 24.5313 0 25.6367C0 26.7421 0.0726563 27.8302 0.211621 28.8976H21.739H21.7391V50.4251C22.8065 50.5641 23.8948 50.6367 25 50.6367C26.1052 50.6367 27.1935 50.5642 28.2608 50.4251V28.8978V28.8977H49.7884C49.9273 27.8302 50 26.7421 50 25.6367C50 24.5313 49.9273 23.4433 49.7884 22.3759V22.3759Z" fill="#D80027"/>
</g>
<defs>
<clipPath id="clip0_175_380">
<rect width="50" height="50" fill="white" transform="translate(0 0.636719)"/>
</clipPath>
</defs>
</svg>
