<svg width="50" height="51" viewBox="0 0 50 51" fill="none" xmlns="http://www.w3.org/2000/svg">
<g clip-path="url(#clip0_175_343)">
<path d="M25 50.7275C38.8071 50.7275 50 39.5347 50 25.7275C50 11.9204 38.8071 0.727539 25 0.727539C11.1929 0.727539 0 11.9204 0 25.7275C0 39.5347 11.1929 50.7275 25 50.7275Z" fill="#D80027"/>
<path d="M24.9995 37.6846C31.6029 37.6846 36.9561 32.3314 36.9561 25.728C36.9561 19.1246 31.6029 13.7715 24.9995 13.7715C18.3961 13.7715 13.043 19.1246 13.043 25.728C13.043 32.3314 18.3961 37.6846 24.9995 37.6846Z" fill="#F0F0F0"/>
<path d="M26.4736 21.1562L28.5248 23.9829L31.8468 22.9058L29.7924 25.73L31.8434 28.5565L28.5225 27.4753L26.4681 30.2995L26.4702 26.8072L23.1494 25.726L26.4715 24.6488L26.4736 21.1562Z" fill="#D80027"/>
<path d="M27.7177 32.7932C23.8157 32.7932 20.6524 29.6299 20.6524 25.7279C20.6524 21.826 23.8157 18.6627 27.7177 18.6627C28.9343 18.6627 30.0791 18.9703 31.0785 19.5119C29.5106 17.9786 27.3666 17.0322 25.0003 17.0322C20.1979 17.0322 16.3047 20.9254 16.3047 25.7278C16.3047 30.5303 20.1979 34.4234 25.0003 34.4234C27.3666 34.4234 29.5107 33.4771 31.0785 31.9438C30.0791 32.4855 28.9343 32.7932 27.7177 32.7932Z" fill="#D80027"/>
</g>
<defs>
<clipPath id="clip0_175_343">
<rect width="50" height="50" fill="white" transform="translate(0 0.727539)"/>
</clipPath>
</defs>
</svg>
