<svg width="50" height="51" viewBox="0 0 50 51" fill="none" xmlns="http://www.w3.org/2000/svg">
<g clip-path="url(#clip0_175_343)">
<path d="M25 50.7275C38.8071 50.7275 50 39.5347 50 25.7275C50 11.9204 38.8071 0.727539 25 0.727539C11.1929 0.727539 0 11.9204 0 25.7275C0 39.5347 11.1929 50.7275 25 50.7275Z" fill="#F0F0F0"/>
<path d="M49.9996 25.7273C49.9996 15.8158 44.2315 7.25176 35.8691 3.20801V48.2466C44.2315 44.2029 49.9996 35.6389 49.9996 25.7273V25.7273Z" fill="#D80027"/>
<path d="M0 25.7273C0 35.6389 5.76807 44.2029 14.1305 48.2467V3.20801C5.76807 7.25176 0 15.8158 0 25.7273Z" fill="#6DA544"/>
<path d="M18.4785 25.7276C18.4785 29.3295 21.3984 32.2494 25.0003 32.2494C28.6021 32.2494 31.5221 29.3295 31.5221 25.7276V23.5537H18.4785V25.7276Z" fill="#6DA544"/>
<path d="M33.6961 21.38H27.1743C27.1743 20.1794 26.201 19.2061 25.0004 19.2061C23.7998 19.2061 22.8265 20.1794 22.8265 21.38H16.3047C16.3047 22.5807 17.3505 23.5539 18.551 23.5539H18.4786C18.4786 24.7546 19.4519 25.7278 20.6525 25.7278C20.6525 26.9285 21.6258 27.9018 22.8265 27.9018H27.1743C28.375 27.9018 29.3482 26.9285 29.3482 25.7278C30.5489 25.7278 31.5222 24.7546 31.5222 23.5539H31.4497C32.6504 23.5539 33.6961 22.5807 33.6961 21.38Z" fill="#FF9811"/>
</g>
<defs>
<clipPath id="clip0_175_343">
<rect width="50" height="50" fill="white" transform="translate(0 0.727539)"/>
</clipPath>
</defs>
</svg>
