<svg width="50" height="51" viewBox="0 0 50 51" fill="none" xmlns="http://www.w3.org/2000/svg">
<g clip-path="url(#clip0_175_380)">
<path d="M25 50.6367C38.8071 50.6367 50 39.4438 50 25.6367C50 11.8296 38.8071 0.636719 25 0.636719C11.1929 0.636719 0 11.8296 0 25.6367C0 39.4438 11.1929 50.6367 25 50.6367Z" fill="#F0F0F0"/>
<path d="M50 25.6367C50 39.4438 38.807 50.6367 25 50.6367C11.193 50.6367 0 39.4438 0 25.6367" fill="#496E2D"/>
<path d="M43.2628 18.0339C42.3688 15.4984 39.953 13.6807 37.1117 13.6807H31.5215C27.9196 13.6807 24.9997 16.6006 24.9997 20.2024C24.9997 21.3792 25.313 22.5102 25.8582 23.4633C23.7823 23.4463 21.8611 23.4776 20.6519 23.4633C20.6519 20.948 20.6519 17.7439 20.6519 17.0735L20.9087 16.8167C22.0616 15.6638 21.6771 13.7423 21.6771 13.7423C21.6771 13.7423 19.7559 13.358 18.6029 14.5109L17.2593 15.8546H15.7605C12.4588 15.8546 9.78232 18.5312 9.78232 21.8328H14.1302V26.7241C14.1302 27.4396 14.2744 28.1211 14.5351 28.7418L13.0432 29.985H10.8692V27.811H8.69531V32.1589H18.4779V36.5067H16.304V38.6807H20.6519V34.3328L22.6445 31.9415H27.3548L29.3475 34.3328V36.5067H27.1735V38.6807H35.8691V26.724C35.8691 24.9231 37.3291 23.4632 39.13 23.4632C39.1763 23.4632 39.2222 23.4648 39.2681 23.4667C39.178 23.1183 39.13 22.7529 39.13 22.3763C39.1302 20.0473 40.9615 18.1461 43.2628 18.0339V18.0339ZM31.5215 36.5066V31.9414H31.7026L33.6953 34.3327V36.5066H31.5215Z" fill="#D80027"/>
</g>
<defs>
<clipPath id="clip0_175_380">
<rect width="50" height="50" fill="white" transform="translate(0 0.636719)"/>
</clipPath>
</defs>
</svg>
