<svg width="50" height="51" viewBox="0 0 50 51" fill="none" xmlns="http://www.w3.org/2000/svg">
<g clip-path="url(#clip0_175_343)">
<path d="M25 50.7275C38.8071 50.7275 50 39.5347 50 25.7275C50 11.9204 38.8071 0.727539 25 0.727539C11.1929 0.727539 0 11.9204 0 25.7275C0 39.5347 11.1929 50.7275 25 50.7275Z" fill="#F0F0F0"/>
<path d="M49.9997 25.7272C49.9997 14.9781 43.2153 5.81455 33.6953 2.28223V49.1724C43.2153 45.6399 49.9997 36.4764 49.9997 25.7272V25.7272Z" fill="#D80027"/>
<path d="M0 25.7272C0 36.4764 6.78447 45.6399 16.3044 49.1723V2.28223C6.78447 5.81455 0 14.9781 0 25.7272Z" fill="#0052B4"/>
</g>
<defs>
<clipPath id="clip0_175_343">
<rect width="50" height="50" fill="white" transform="translate(0 0.727539)"/>
</clipPath>
</defs>
</svg>
