<svg width="50" height="51" viewBox="0 0 50 51" fill="none" xmlns="http://www.w3.org/2000/svg">
<g clip-path="url(#clip0_175_343)">
<path d="M25 50.7275C38.8071 50.7275 50 39.5347 50 25.7275C50 11.9204 38.8071 0.727539 25 0.727539C11.1929 0.727539 0 11.9204 0 25.7275C0 39.5347 11.1929 50.7275 25 50.7275Z" fill="#6DA544"/>
<path d="M14.1299 30.6191C14.1299 32.42 15.5898 33.88 17.3907 33.88H27.1733C27.1733 35.3808 28.3899 36.5974 29.8907 36.5974H33.1516C34.6523 36.5974 35.8689 35.3808 35.8689 33.88V30.6191H14.1299Z" fill="#F0F0F0"/>
<path d="M36.1407 14.8584V22.4671C36.1407 23.6658 35.1655 24.641 33.9668 24.641V27.9019C36.9636 27.9019 39.4016 25.4638 39.4016 22.4671V14.8584H36.1407Z" fill="#F0F0F0"/>
<path d="M12.7716 22.4671C12.7716 23.6658 11.7964 24.641 10.5977 24.641V27.9019C13.5944 27.9019 16.0324 25.4638 16.0324 22.4671V14.8584H12.7716V22.4671Z" fill="#F0F0F0"/>
<path d="M31.25 14.8584H34.5108V22.4671H31.25V14.8584Z" fill="#F0F0F0"/>
<path d="M26.3587 19.2062C26.3587 19.506 26.1148 19.7497 25.8152 19.7497C25.5156 19.7497 25.2718 19.5059 25.2718 19.2062V14.8584H22.0109V19.2062C22.0109 19.506 21.7671 19.7497 21.4675 19.7497C21.1679 19.7497 20.924 19.5059 20.924 19.2062V14.8584H17.6631V19.2062C17.6631 21.304 19.3697 23.0106 21.4675 23.0106C22.2754 23.0106 23.0246 22.7567 23.6414 22.3255C24.2581 22.7566 25.0074 23.0106 25.8153 23.0106C25.978 23.0106 26.138 22.9992 26.2953 22.9792C26.0643 23.9312 25.2068 24.641 24.1849 24.641V27.9019C27.1816 27.9019 29.6196 25.4638 29.6196 22.4671V19.2062V14.8584H26.3588V19.2062H26.3587Z" fill="#F0F0F0"/>
<path d="M17.6631 24.6406H22.5544V27.9015H17.6631V24.6406Z" fill="#F0F0F0"/>
</g>
<defs>
<clipPath id="clip0_175_343">
<rect width="50" height="50" fill="white" transform="translate(0 0.727539)"/>
</clipPath>
</defs>
</svg>
