<svg width="50" height="51" viewBox="0 0 50 51" fill="none" xmlns="http://www.w3.org/2000/svg">
<g clip-path="url(#clip0_175_343)">
<path d="M25 50.7275C38.8071 50.7275 50 39.5347 50 25.7275C50 11.9204 38.8071 0.727539 25 0.727539C11.1929 0.727539 0 11.9204 0 25.7275C0 39.5347 11.1929 50.7275 25 50.7275Z" fill="#F0F0F0"/>
<path d="M19.5655 22.4667H49.7886C48.1906 10.2004 37.702 0.727539 25.0002 0.727539C23.1335 0.727539 21.3154 0.933887 19.5654 1.32178V22.4667H19.5655Z" fill="#D80027"/>
<path d="M13.0437 22.4669V3.76758C6.1792 7.51309 1.26494 14.3833 0.211914 22.467H13.0437V22.4669Z" fill="#D80027"/>
<path d="M13.0437 28.9883H0.211914C1.26494 37.072 6.1792 43.9422 13.0437 47.6876L13.0437 28.9883Z" fill="#D80027"/>
<path d="M19.5654 28.9884V50.1332C21.3154 50.5211 23.1335 50.7274 25.0002 50.7274C37.702 50.7274 48.1906 41.2546 49.7886 28.9883H19.5654V28.9884Z" fill="#D80027"/>
</g>
<defs>
<clipPath id="clip0_175_343">
<rect width="50" height="50" fill="white" transform="translate(0 0.727539)"/>
</clipPath>
</defs>
</svg>
