<svg width="50" height="51" viewBox="0 0 50 51" fill="none" xmlns="http://www.w3.org/2000/svg">
<g clip-path="url(#clip0_175_380)">
<path d="M25 50.6367C38.8071 50.6367 50 39.4438 50 25.6367C50 11.8296 38.8071 0.636719 25 0.636719C11.1929 0.636719 0 11.8296 0 25.6367C0 39.4438 11.1929 50.6367 25 50.6367Z" fill="#F0F0F0"/>
<path d="M23.9131 25.637H50C50 23.3806 49.6992 21.1946 49.1388 19.1152H23.9131V25.637Z" fill="#D80027"/>
<path d="M23.9131 12.5931H46.3307C44.8003 10.0958 42.8436 7.88848 40.5621 6.07129H23.9131V12.5931Z" fill="#D80027"/>
<path d="M24.9996 50.6369C30.8833 50.6369 36.2912 48.6033 40.5617 45.2021H9.4375C13.708 48.6033 19.1159 50.6369 24.9996 50.6369Z" fill="#D80027"/>
<path d="M3.66943 38.68H46.3308C47.5594 36.6752 48.5122 34.4838 49.1389 32.1582H0.861328C1.48799 34.4838 2.44082 36.6752 3.66943 38.68V38.68Z" fill="#D80027"/>
<path d="M11.5805 4.54082H13.8587L11.7396 6.08037L12.549 8.57148L10.43 7.03193L8.31094 8.57148L9.01016 6.41943C7.14434 7.97363 5.50898 9.79453 4.16133 11.8234H4.89131L3.54238 12.8034C3.33223 13.154 3.13066 13.5102 2.9375 13.8716L3.58164 15.8541L2.37988 14.981C2.08115 15.6139 1.80791 16.261 1.5623 16.9217L2.27197 19.1061H4.89131L2.77217 20.6456L3.58164 23.1367L1.4626 21.5972L0.193262 22.5194C0.0662109 23.5407 0 24.581 0 25.6367H25C25 11.8297 25 10.202 25 0.636719C20.0613 0.636719 15.4575 2.06934 11.5805 4.54082V4.54082ZM12.549 23.1367L10.43 21.5972L8.31094 23.1367L9.12041 20.6456L7.00127 19.1061H9.62061L10.43 16.6149L11.2394 19.1061H13.8587L11.7396 20.6456L12.549 23.1367ZM11.7396 13.363L12.549 15.8541L10.43 14.3146L8.31094 15.8541L9.12041 13.363L7.00127 11.8234H9.62061L10.43 9.33232L11.2394 11.8234H13.8587L11.7396 13.363ZM21.5164 23.1367L19.3974 21.5972L17.2783 23.1367L18.0878 20.6456L15.9687 19.1061H18.588L19.3974 16.6149L20.2067 19.1061H22.8261L20.7069 20.6456L21.5164 23.1367ZM20.7069 13.363L21.5164 15.8541L19.3974 14.3146L17.2783 15.8541L18.0878 13.363L15.9687 11.8234H18.588L19.3974 9.33232L20.2067 11.8234H22.8261L20.7069 13.363ZM20.7069 6.08037L21.5164 8.57148L19.3974 7.03193L17.2783 8.57148L18.0878 6.08037L15.9687 4.54082H18.588L19.3974 2.04971L20.2067 4.54082H22.8261L20.7069 6.08037Z" fill="#0052B4"/>
</g>
<defs>
<clipPath id="clip0_175_380">
<rect width="50" height="50" fill="white" transform="translate(0 0.636719)"/>
</clipPath>
</defs>
</svg>
