<svg width="50" height="51" viewBox="0 0 50 51" fill="none" xmlns="http://www.w3.org/2000/svg">
<g clip-path="url(#clip0_175_380)">
<path d="M35.87 3.11738C32.5833 1.52813 28.896 0.636719 25.0005 0.636719C21.105 0.636719 17.4177 1.52813 14.131 3.11738L11.957 25.6367L14.131 48.1561C17.4177 49.7453 21.105 50.6367 25.0005 50.6367C28.896 50.6367 32.5833 49.7453 35.87 48.1561L38.0439 25.6367L35.87 3.11738Z" fill="#FFDA44"/>
<path d="M24.9994 16.9414L27.1576 23.584H34.1428L28.492 27.6897L30.6503 34.3326L24.9994 30.2271L19.3485 34.3326L21.5072 27.6897L15.8564 23.584H22.8411L24.9994 16.9414Z" fill="#496E2D"/>
<path d="M14.1305 3.11816C5.76816 7.16182 0 15.7252 0 25.6366C0 35.548 5.76816 44.1114 14.1305 48.1551V3.11816Z" fill="#496E2D"/>
<path d="M35.8691 3.11816V48.1551C44.2314 44.1114 49.9996 35.548 49.9996 25.6366C49.9996 15.7252 44.2314 7.16182 35.8691 3.11816Z" fill="#D80027"/>
</g>
<defs>
<clipPath id="clip0_175_380">
<rect width="50" height="50" fill="white" transform="translate(0 0.636719)"/>
</clipPath>
</defs>
</svg>
