<svg width="50" height="51" viewBox="0 0 50 51" fill="none" xmlns="http://www.w3.org/2000/svg">
<g clip-path="url(#clip0_175_380)">
<path d="M25 50.6367C38.8071 50.6367 50 39.4438 50 25.6367C50 11.8296 38.8071 0.636719 25 0.636719C11.1929 0.636719 0 11.8296 0 25.6367C0 39.4438 11.1929 50.6367 25 50.6367Z" fill="#F0F0F0"/>
<path d="M24.9997 0.636719C14.2506 0.636719 5.08701 7.42109 1.55469 16.9411H48.4448C44.9124 7.42109 35.7488 0.636719 24.9997 0.636719V0.636719Z" fill="#A2001D"/>
<path d="M24.9997 50.6364C35.7488 50.6364 44.9124 43.8521 48.4447 34.332H1.55469C5.08701 43.8521 14.2506 50.6364 24.9997 50.6364Z" fill="#0052B4"/>
</g>
<defs>
<clipPath id="clip0_175_380">
<rect width="50" height="50" fill="white" transform="translate(0 0.636719)"/>
</clipPath>
</defs>
</svg>
