<svg width="50" height="51" viewBox="0 0 50 51" fill="none" xmlns="http://www.w3.org/2000/svg">
<g clip-path="url(#clip0_175_380)">
<path d="M0 25.6367C0 11.8297 11.193 0.636719 25 0.636719C38.807 0.636719 50 11.8297 50 25.6367L25 27.8106L0 25.6367Z" fill="#FFDA44"/>
<path d="M3.3457 38.1363C7.66846 45.6086 15.747 50.6363 25.0004 50.6363C34.2538 50.6363 42.3323 45.6086 46.6551 38.1363L25.0004 36.5059L3.3457 38.1363Z" fill="#D80027"/>
<path d="M46.6547 38.1367C48.7818 34.4596 50 30.1905 50 25.6367H0C0 30.1905 1.21816 34.4596 3.34531 38.1367H46.6547Z" fill="#0052B4"/>
<path d="M25.0003 34.3326C29.8027 34.3326 33.6959 30.4395 33.6959 25.637C33.6959 20.8346 29.8027 16.9414 25.0003 16.9414C20.1978 16.9414 16.3047 20.8346 16.3047 25.637C16.3047 30.4395 20.1978 34.3326 25.0003 34.3326Z" fill="#FFDA44"/>
<path d="M25.0002 31.0718C22.0034 31.0718 19.5654 28.6337 19.5654 25.637V22.3762C19.5654 19.3794 22.0035 16.9414 25.0002 16.9414C27.9969 16.9414 30.435 19.3795 30.435 22.3762V25.637C30.435 28.6338 27.997 31.0718 25.0002 31.0718Z" fill="#338AF3"/>
<path d="M33.6961 12.5929H27.1743C27.1743 11.3923 26.201 10.4189 25.0004 10.4189C23.7998 10.4189 22.8265 11.3923 22.8265 12.5929H16.3047C16.3047 13.7936 17.3505 14.7668 18.551 14.7668H18.4786C18.4786 15.9675 19.4519 16.9407 20.6525 16.9407C20.6525 18.1414 21.6258 19.1146 22.8265 19.1146H27.1743C28.375 19.1146 29.3482 18.1414 29.3482 16.9407C30.5489 16.9407 31.5222 15.9675 31.5222 14.7668H31.4498C32.6504 14.7668 33.6961 13.7935 33.6961 12.5929V12.5929Z" fill="black"/>
</g>
<defs>
<clipPath id="clip0_175_380">
<rect width="50" height="50" fill="white" transform="translate(0 0.636719)"/>
</clipPath>
</defs>
</svg>
